<svg xmlns="http://www.w3.org/2000/svg" width="100%" viewBox="0 0 16 16" fill="none" class="svg_footer"><path d="M10.8198 0.400391C10.9125 1.34623 11.3299 2.23099 12.0024 2.90332C12.6748 3.57557 13.5596 3.99248 14.5053 4.08496V6.32227C13.7195 6.27254 12.9505 6.07886 12.2377 5.74805L11.9252 5.59277C11.4483 5.33819 10.7993 5.65212 10.7993 6.25195V10.9473C10.7992 11.8543 10.5342 12.7417 10.0366 13.5C9.53894 14.2583 8.83052 14.8548 7.99849 15.2158C7.16665 15.5766 6.24741 15.6867 5.35395 15.5322C4.46024 15.3776 3.63057 14.9643 2.96821 14.3447C2.30599 13.7251 1.83927 12.9253 1.62544 12.0439C1.41168 11.1626 1.46037 10.2379 1.76509 9.38379C2.06981 8.52979 2.61709 7.78329 3.34028 7.23633C4.03963 6.70752 4.87424 6.38884 5.74653 6.31348V8.55957H5.74556C5.29028 8.63613 4.86642 8.84184 4.52388 9.15137C4.1814 9.46086 3.93412 9.86149 3.81196 10.3066C3.68981 10.7519 3.6978 11.2231 3.83442 11.6641C3.97107 12.105 4.23104 12.4978 4.58345 12.7959C4.93588 13.094 5.36622 13.285 5.82368 13.3467C6.28119 13.4083 6.74668 13.3378 7.16548 13.1436C7.5843 12.9493 7.93849 12.6391 8.18696 12.25C8.4354 11.8609 8.56778 11.4089 8.56782 10.9473V0.400391H10.8198Z" stroke="white" stroke-opacity="0.64" stroke-width="0.8" stroke-linecap="round" stroke-linejoin="round"></path></svg>
