<svg xmlns="http://www.w3.org/2000/svg" width="100%" viewBox="0 0 16 16" fill="none" class="svg_footer"><path d="M13.7621 16H2.23789C1.64436 16 1.07515 15.7642 0.655462 15.3445C0.235777 14.9249 0 14.3556 0 13.7621V2.23789C0 1.64436 0.235777 1.07515 0.655462 0.655462C1.07515 0.235777 1.64436 0 2.23789 0H13.7621C14.3556 0 14.9249 0.235777 15.3445 0.655462C15.7642 1.07515 16 1.64436 16 2.23789V13.7621C16 14.3556 15.7642 14.9249 15.3445 15.3445C14.9249 15.7642 14.3556 16 13.7621 16ZM2.23789 0.895155C1.88177 0.895155 1.54024 1.03662 1.28843 1.28843C1.03662 1.54024 0.895155 1.88177 0.895155 2.23789V13.7621C0.895155 14.1182 1.03662 14.4598 1.28843 14.7116C1.54024 14.9634 1.88177 15.1048 2.23789 15.1048H13.7621C14.1182 15.1048 14.4598 14.9634 14.7116 14.7116C14.9634 14.4598 15.1048 14.1182 15.1048 13.7621V2.23789C15.1048 1.88177 14.9634 1.54024 14.7116 1.28843C14.4598 1.03662 14.1182 0.895155 13.7621 0.895155H2.23789Z" fill="white" fill-opacity="0.64"></path><path d="M8.00001 12.1124C7.18664 12.1115 6.39179 11.8695 5.71594 11.4169C5.04009 10.9644 4.51359 10.3216 4.20298 9.56988C3.89237 8.81815 3.8116 7.99121 3.97089 7.19359C4.13018 6.39598 4.52237 5.66349 5.09788 5.08872C5.6734 4.51396 6.4064 4.12273 7.20422 3.96448C8.00205 3.80623 8.82888 3.88808 9.5802 4.19967C10.3315 4.51126 10.9736 5.0386 11.4253 5.71504C11.8769 6.39148 12.1179 7.18664 12.1177 8.00001C12.1163 9.09117 11.6818 10.1371 10.9098 10.9082C10.1377 11.6793 9.09116 12.1124 8.00001 12.1124ZM8.00001 4.77745C7.36391 4.77834 6.74235 4.96772 6.21382 5.32166C5.6853 5.67561 5.27352 6.17825 5.03051 6.76609C4.78749 7.35394 4.72414 8.00062 4.84846 8.62445C4.97277 9.24828 5.27917 9.82127 5.72896 10.2711C6.17874 10.7208 6.75174 11.0272 7.37557 11.1516C7.9994 11.2759 8.64608 11.2125 9.23392 10.9695C9.82177 10.7265 10.3244 10.3147 10.6784 9.7862C11.0323 9.25767 11.2217 8.63611 11.2226 8.00001C11.2226 7.14534 10.883 6.32567 10.2787 5.72132C9.67435 5.11697 8.85468 4.77745 8.00001 4.77745Z" fill="white" fill-opacity="0.64"></path><path d="M12.6548 4.33436C13.1863 4.33436 13.6171 3.90353 13.6171 3.37207C13.6171 2.84061 13.1863 2.40977 12.6548 2.40977C12.1233 2.40977 11.6925 2.84061 11.6925 3.37207C11.6925 3.90353 12.1233 4.33436 12.6548 4.33436Z" fill="white" fill-opacity="0.64"></path></svg>
