<svg xmlns="http://www.w3.org/2000/svg" width="100%" viewBox="0 0 17 17" fill="none" class="svg_footer"><path d="M4.06985 5.71875H0.726562V16.3803H4.06985V5.71875Z" stroke="white" stroke-opacity="0.64" stroke-width="0.914286"></path><path d="M13.1134 5.48776C12.9902 5.47235 12.8592 5.46464 12.7282 5.45694C10.8563 5.37991 9.80094 6.4892 9.43118 6.96681C9.33103 7.09777 9.28481 7.17481 9.28481 7.17481V5.74967H6.08789V16.4112H9.28481H9.43118C9.43118 15.325 9.43118 14.2465 9.43118 13.1604C9.43118 12.5749 9.43118 11.9894 9.43118 11.404C9.43118 10.6799 9.37726 9.90952 9.73932 9.24703C10.0475 8.69238 10.6021 8.41506 11.2261 8.41506C13.0749 8.41506 13.1134 10.0867 13.1134 10.2408C13.1134 10.2485 13.1134 10.2562 13.1134 10.2562V16.4574H16.4567V9.50124C16.4567 7.12088 15.2473 5.71886 13.1134 5.48776Z" stroke="white" stroke-opacity="0.64" stroke-width="0.914286"></path><path d="M2.39829 4.33956C3.47042 4.33956 4.33956 3.47042 4.33956 2.39829C4.33956 1.32616 3.47042 0.457031 2.39829 0.457031C1.32616 0.457031 0.457031 1.32616 0.457031 2.39829C0.457031 3.47042 1.32616 4.33956 2.39829 4.33956Z" stroke="white" stroke-opacity="0.64" stroke-width="0.914286"></path></svg>
