<svg xmlns="http://www.w3.org/2000/svg" xmlns:xlink="http://www.w3.org/1999/xlink" viewBox="0 0 86.261 136.656" overflow="visible"><g><path d="M 67.987 51.701 C 39.481 66.663 14.338 80.838 0.81 88.58 C 0.381 94.29 0.094 99.777 0 104.606 C 10.511 98.52 43.413 79.657 80.87 60.195 C 79.297 57.851 74.466 54.82 67.987 51.695 Z" fill="rgb(0,64,64)"></path><path d="M 62.071 49.057 C 36.893 62.351 14.708 74.805 1.397 82.395 C 1.209 84.498 1.033 86.589 0.88 88.651 C 14.409 80.908 39.552 66.733 68.057 51.771 C 66.185 50.867 64.178 49.956 62.071 49.051 Z" fill="rgb(0,189,115)"></path><path d="M 9.25 37.927 C 7.953 39.919 6.567 45.4 5.282 52.672 C 13.811 47.913 22.372 43.211 30.965 38.568 C 20.013 35.883 11.122 35.055 9.25 37.927 Z" fill="rgb(0,64,64)"></path><path d="M 30.842 38.477 C 22.25 43.123 13.689 47.825 5.159 52.582 C 4.367 57.035 3.615 62.163 2.935 67.579 C 14.479 61.065 29.891 52.5 47.117 43.3 C 41.582 41.409 35.989 39.74 30.848 38.477 Z" fill="rgb(0,189,115)"></path><path d="M 47.234 43.177 C 30.014 52.376 14.602 60.941 3.052 67.456 C 2.453 72.244 1.913 77.254 1.467 82.218 C 14.778 74.623 36.963 62.175 62.141 48.881 C 57.505 46.895 52.399 44.945 47.234 43.183 Z" fill="rgb(0,64,64)"></path><path d="M 81.411 61.276 C 81.335 60.941 81.153 60.589 80.906 60.213 C 43.45 79.669 10.548 98.532 0.037 104.623 C -0.11 111.937 0.172 117.747 1.052 120.567 C 33.502 103.713 62.536 87.3 76.563 79.246 C 79.938 70.669 82.01 63.82 81.405 61.276 Z M 67.754 99.477 C 54.86 106.797 35.721 117.482 14.146 128.926 C 16.482 129.872 18.988 130.794 21.553 131.657 C 37.74 122.993 52.242 114.939 63.323 108.688 C 64.808 105.687 66.298 102.591 67.754 99.477 Z" fill="rgb(0,189,115)"></path><path d="M 21.669 131.71 C 32.884 135.488 45.092 138.055 47.944 135.828 C 50.098 134.142 56.666 122.446 63.439 108.741 C 49.599 116.55 35.675 124.207 21.669 131.71 Z M 76.685 79.305 C 62.652 87.358 33.618 103.766 1.174 120.625 C 1.373 121.254 1.596 121.747 1.855 122.059 C 3.48 124.021 8.299 126.57 14.262 128.985 C 35.836 117.541 54.975 106.856 67.87 99.536 C 71.15 92.534 74.255 85.473 76.685 79.305 Z" fill="rgb(0,64,64)"></path><path d="M 43.924 42.324 C 43.971 42.447 43.349 41.607 41.987 39.416 C 40.813 37.313 39.334 34.458 37.755 30.645 C 36.218 26.856 34.522 22.233 33.641 16.805 C 33.207 14.097 32.972 11.172 33.348 8.105 C 33.577 6.578 33.941 5.004 34.727 3.488 C 35.502 2.031 36.811 0.41 38.912 0.063 C 41.001 -0.289 42.879 0.891 43.947 2.184 C 45.086 3.506 45.755 5.021 46.219 6.513 C 47.005 9.503 47.381 12.323 47.533 15.066 C 47.88 20.524 47.451 25.411 46.923 29.47 C 45.814 37.589 44.2 42.412 43.924 42.335 C 43.601 42.259 44.652 37.342 45.338 29.3 C 45.655 25.288 45.913 20.483 45.462 15.225 C 45.268 12.611 44.828 9.821 44.106 7.171 C 43.701 5.891 43.108 4.639 42.263 3.676 C 41.435 2.695 40.303 2.113 39.276 2.301 C 38.231 2.442 37.309 3.412 36.699 4.557 C 36.083 5.72 35.742 7.077 35.531 8.428 C 35.167 11.166 35.332 13.921 35.69 16.511 C 36.417 21.71 37.914 26.298 39.24 30.087 C 40.573 33.859 41.911 36.949 42.703 38.934 C 43.319 40.661 43.654 41.601 43.918 42.335 Z" fill="rgb(236,79,83)"></path><path d="M 44.11 42.445 C 44.221 42.516 43.217 42.222 40.811 41.3 C 38.604 40.331 35.705 38.956 32.143 36.871 C 28.633 34.785 24.489 32.13 20.504 28.335 C 18.52 26.438 16.572 24.252 15.017 21.585 C 14.277 20.228 13.614 18.754 13.326 17.074 C 13.062 15.447 13.127 13.361 14.594 11.81 C 16.05 10.265 18.256 10.066 19.888 10.447 C 21.59 10.812 23.04 11.616 24.313 12.521 C 26.749 14.43 28.744 16.445 30.529 18.537 C 34.103 22.672 36.715 26.831 38.739 30.379 C 42.76 37.517 44.385 42.334 44.115 42.44 C 43.816 42.575 41.68 38.022 37.372 31.202 C 35.206 27.812 32.501 23.829 28.967 19.911 C 27.236 17.949 25.199 15.987 23.022 14.319 C 21.925 13.543 20.698 12.903 19.442 12.65 C 18.192 12.368 16.936 12.592 16.232 13.361 C 15.48 14.107 15.334 15.435 15.545 16.715 C 15.756 18.014 16.308 19.3 16.948 20.504 C 18.309 22.907 20.105 25.004 21.96 26.849 C 25.681 30.55 29.642 33.299 32.988 35.519 C 36.327 37.716 39.262 39.373 41.093 40.472 C 42.625 41.476 43.464 42.022 44.115 42.451 Z" fill="rgb(236,79,83)"></path><path d="M 43.735 42.366 C 43.641 42.454 44.158 41.549 45.607 39.417 C 47.057 37.49 49.064 34.982 51.911 31.997 C 54.751 29.06 58.284 25.635 62.892 22.628 C 65.192 21.136 67.763 19.737 70.721 18.839 C 72.212 18.433 73.796 18.122 75.498 18.234 C 77.142 18.351 79.155 18.897 80.323 20.677 C 81.491 22.451 81.174 24.643 80.423 26.146 C 79.677 27.721 78.562 28.949 77.382 29.977 C 74.964 31.909 72.546 33.39 70.105 34.641 C 65.257 37.167 60.62 38.753 56.7 39.91 C 48.835 42.178 43.776 42.654 43.735 42.366 C 43.671 42.043 48.595 41.009 56.219 38.389 C 60.016 37.055 64.506 35.346 69.13 32.802 C 71.437 31.569 73.814 30.035 75.939 28.302 C 76.942 27.409 77.846 26.364 78.386 25.201 C 78.949 24.049 79.02 22.775 78.433 21.911 C 77.881 21.012 76.625 20.56 75.334 20.466 C 74.019 20.372 72.646 20.613 71.326 20.959 C 68.679 21.735 66.225 22.998 64.007 24.378 C 59.552 27.151 55.966 30.376 53.038 33.119 C 50.132 35.863 47.849 38.342 46.359 39.869 C 45.026 41.132 44.304 41.819 43.741 42.354 Z" fill="rgb(236,79,83)"></path><path d="M 43.736 42.41 C 43.612 42.44 44.504 41.911 46.817 40.771 C 49.029 39.814 52.011 38.627 55.961 37.44 C 59.881 36.289 64.647 35.067 70.135 34.732 C 72.87 34.574 75.798 34.632 78.809 35.314 C 80.306 35.696 81.837 36.213 83.264 37.153 C 84.631 38.069 86.11 39.538 86.251 41.67 C 86.392 43.791 85.03 45.541 83.639 46.475 C 82.213 47.474 80.64 47.991 79.108 48.302 C 76.056 48.784 73.222 48.878 70.475 48.755 C 65.011 48.555 60.198 47.633 56.219 46.699 C 48.261 44.778 43.63 42.686 43.736 42.416 C 43.841 42.105 48.63 43.644 56.548 45.136 C 60.503 45.858 65.257 46.593 70.528 46.675 C 73.145 46.746 75.962 46.587 78.668 46.135 C 79.983 45.858 81.286 45.394 82.33 44.654 C 83.387 43.932 84.079 42.857 83.997 41.817 C 83.962 40.759 83.093 39.743 82.013 39.027 C 80.916 38.298 79.601 37.822 78.281 37.47 C 75.599 36.83 72.84 36.718 70.228 36.818 C 64.987 37.023 60.28 38.051 56.377 38.985 C 52.498 39.931 49.288 40.953 47.234 41.547 C 45.455 41.987 44.487 42.228 43.73 42.41 Z" fill="rgb(236,79,83)"></path><path d="M 43.72 42.326 C 43.702 42.455 43.561 41.421 43.432 38.842 C 43.42 36.428 43.508 33.214 43.972 29.12 C 44.459 25.061 45.21 20.197 47.059 15.015 C 47.992 12.437 49.195 9.764 51.009 7.261 C 51.948 6.033 53.028 4.829 54.448 3.889 C 55.827 2.99 57.764 2.209 59.771 2.92 C 61.773 3.625 62.847 5.563 63.158 7.214 C 63.516 8.918 63.369 10.568 63.052 12.102 C 62.295 15.104 61.262 17.747 60.071 20.22 C 57.735 25.166 54.994 29.237 52.576 32.527 C 47.681 39.095 43.943 42.531 43.731 42.331 C 43.485 42.108 46.783 38.313 51.273 31.611 C 53.491 28.256 56.039 24.174 58.187 19.351 C 59.278 16.972 60.247 14.316 60.892 11.649 C 61.156 10.328 61.245 8.953 60.969 7.696 C 60.722 6.439 60.006 5.381 59.02 5.047 C 58.04 4.659 56.761 5.064 55.675 5.775 C 54.571 6.498 53.621 7.52 52.781 8.595 C 51.138 10.815 49.952 13.306 49.013 15.75 C 47.135 20.655 46.231 25.39 45.557 29.349 C 44.899 33.297 44.576 36.651 44.312 38.772 C 44.019 40.581 43.855 41.568 43.731 42.337 Z" fill="rgb(236,79,83)"></path></g></svg>