<svg xmlns="http://www.w3.org/2000/svg" xmlns:xlink="http://www.w3.org/1999/xlink" viewBox="0 0 100 143" overflow="visible"><g><path d="M 29.583 58.656 C 37.437 59.72 46.447 73.608 51.696 74.531 C 55.939 75.279 72.636 65.333 81.263 68.31 C 88.592 70.847 92.968 80.934 97.344 83.82 C 99.258 75.046 100.281 67.945 99.59 65.034 C 97.236 55.138 9.709 33.999 3.502 41.492 C 1.265 44.186 0.233 55.238 0 68.643 C 0.324 68.768 0.674 68.884 1.073 68.976 C 4.459 69.732 21.73 57.583 29.583 58.656 Z" fill="rgb(0,161,87)"></path><path d="M 79.158 81.238 C 70.523 78.253 53.826 88.207 49.583 87.458 C 44.334 86.527 35.324 72.648 27.47 71.583 C 20.233 70.602 4.983 80.847 0 81.854 C 0.15 91.001 0.582 100.323 1.181 108.248 C 7.313 105.504 18.003 99.084 23.585 99.841 C 30.873 100.831 39.251 113.72 44.117 114.585 C 48.061 115.284 63.56 106.045 71.579 108.814 C 78.326 111.142 82.37 120.373 86.396 123.151 C 89.025 115.092 91.903 105.329 94.316 96.057 C 90.231 92.506 85.972 83.608 79.15 81.246 Z" fill="rgb(0,161,87)"></path><path d="M 49.644 87.775 C 53.886 88.523 70.583 78.577 79.219 81.554 C 86.041 83.908 90.3 92.814 94.385 96.365 C 95.516 92.016 96.548 87.766 97.396 83.858 C 93.02 80.972 88.653 70.885 81.315 68.348 C 72.68 65.363 55.983 75.317 51.748 74.569 C 46.499 73.637 37.489 59.758 29.636 58.694 C 21.782 57.629 4.511 69.77 1.125 69.014 C 0.726 68.922 0.377 68.814 0.052 68.681 C -0.023 72.997 -0.014 77.563 0.06 82.161 C 5.044 81.155 20.293 70.91 27.531 71.891 C 35.384 72.955 44.394 86.843 49.644 87.766 Z" fill="rgb(0,64,64)"></path><path d="M 42.437 127.072 C 37.562 126.207 29.192 113.317 21.905 112.328 C 17.154 111.679 8.685 116.244 2.496 119.313 C 3.062 123.937 3.702 127.296 4.359 128.685 C 8.111 136.61 75.281 147.887 79.974 140.71 C 80.697 139.596 81.737 137.25 82.952 134.049 C 79.458 130.315 75.664 123.288 69.907 121.3 C 61.887 118.531 46.38 127.77 42.445 127.072 Z" fill="rgb(0,161,87)"></path><path d="M 44.184 114.597 C 39.309 113.732 30.94 100.843 23.652 99.853 C 18.07 99.096 7.379 105.516 1.248 108.26 C 1.556 112.31 1.905 115.994 2.288 119.104 C 8.477 116.036 16.946 111.479 21.697 112.119 C 28.984 113.109 37.362 125.998 42.229 126.863 C 46.172 127.562 61.671 118.323 69.691 121.092 C 75.448 123.079 79.241 130.098 82.736 133.84 C 83.85 130.905 85.123 127.254 86.463 123.163 C 82.436 120.385 78.385 111.154 71.646 108.826 C 63.626 106.057 48.119 115.296 44.184 114.597 Z" fill="rgb(0,64,64)"></path><path d="M 52.212 47.119 C 52.295 47.277 51.472 46.52 49.517 44.242 C 47.828 42.046 45.731 39.111 43.36 35.078 C 41.039 31.069 38.419 26.146 36.597 20.167 C 35.698 17.182 34.983 13.922 34.941 10.388 C 34.974 8.616 35.141 6.762 35.815 4.899 C 36.48 3.111 37.753 0.991 40.207 0.242 C 42.645 -0.506 45.041 0.6 46.48 1.93 C 48.002 3.286 48.992 4.916 49.749 6.554 C 51.097 9.83 51.929 12.932 52.503 16.001 C 53.701 22.096 53.917 27.643 53.901 32.275 C 53.809 41.547 52.645 47.186 52.229 47.136 C 51.771 47.094 52.129 41.423 51.646 32.333 C 51.38 27.801 50.923 22.396 49.625 16.608 C 49.017 13.731 48.102 10.679 46.904 7.86 C 46.272 6.512 45.44 5.24 44.392 4.325 C 43.36 3.394 42.112 2.978 41.147 3.294 C 40.141 3.552 39.292 4.675 38.801 6.005 C 38.302 7.344 38.127 8.882 38.077 10.404 C 38.077 13.473 38.652 16.516 39.434 19.352 C 40.998 25.04 43.335 29.947 45.357 33.997 C 47.378 38.021 49.325 41.323 50.457 43.41 C 51.38 45.373 52.145 46.961 52.229 47.127 Z" fill="rgb(236,79,83)"></path><path d="M 52.355 47.128 C 52.522 47.203 51.399 47.095 48.462 46.463 C 45.791 45.739 42.339 44.658 38.013 42.879 C 33.745 41.091 28.679 38.746 23.604 35.087 C 21.083 33.249 18.537 31.087 16.366 28.292 C 15.318 26.862 14.336 25.29 13.745 23.394 C 13.196 21.565 12.93 19.112 14.428 17.033 C 15.917 14.962 18.496 14.397 20.442 14.588 C 22.472 14.746 24.253 15.453 25.842 16.293 C 28.895 18.097 31.432 20.06 33.753 22.155 C 38.387 26.288 41.923 30.579 44.71 34.272 C 50.242 41.714 52.721 46.912 52.364 47.12 C 51.973 47.361 48.828 42.629 42.946 35.677 C 39.993 32.234 36.357 28.201 31.823 24.367 C 29.602 22.446 27.023 20.567 24.369 19.045 C 23.046 18.355 21.615 17.848 20.234 17.748 C 18.845 17.623 17.606 18.047 17.023 18.887 C 16.383 19.702 16.383 21.107 16.799 22.463 C 17.215 23.835 18.005 25.166 18.887 26.405 C 20.742 28.858 23.046 30.929 25.376 32.708 C 30.06 36.292 34.893 38.787 38.953 40.8 C 42.996 42.779 46.54 44.234 48.711 45.224 C 50.633 46.23 52.206 47.037 52.372 47.111 Z" fill="rgb(236,79,83)"></path><path d="M 52.016 47.073 C 51.9 47.215 52.266 46.15 53.563 43.439 C 54.886 41.011 56.725 37.901 59.454 34.1 C 62.182 30.358 65.626 25.967 70.36 21.884 C 72.723 19.855 75.418 17.884 78.638 16.412 C 80.268 15.722 82.032 15.123 84.012 14.99 C 85.917 14.874 88.371 15.181 90.052 17.119 C 91.724 19.048 91.683 21.685 91.042 23.531 C 90.418 25.468 89.328 27.04 88.139 28.387 C 85.684 30.94 83.18 32.961 80.61 34.732 C 75.518 38.292 70.527 40.745 66.284 42.599 C 57.765 46.267 52.133 47.481 52.016 47.081 C 51.875 46.641 57.207 44.678 65.319 40.553 C 69.354 38.474 74.112 35.872 78.887 32.337 C 81.275 30.616 83.696 28.545 85.784 26.317 C 86.758 25.194 87.589 23.913 87.997 22.591 C 88.438 21.269 88.313 19.963 87.623 19.206 C 86.974 18.391 85.609 18.075 84.195 18.159 C 82.764 18.242 81.283 18.707 79.877 19.281 C 77.066 20.52 74.52 22.283 72.24 24.138 C 67.673 27.872 64.129 31.988 61.234 35.481 C 58.372 38.957 56.142 42.075 54.687 43.955 C 53.264 45.593 52.124 46.94 52.008 47.081 Z" fill="rgb(236,79,83)"></path><path d="M 52.016 47.29 C 51.85 47.356 52.69 46.616 55.152 44.895 C 57.507 43.44 60.643 41.643 64.894 39.689 C 69.12 37.785 74.278 35.673 80.418 34.458 C 83.48 33.86 86.799 33.477 90.326 33.793 C 92.09 34.001 93.912 34.35 95.701 35.215 C 97.414 36.055 99.394 37.535 99.894 40.047 C 100.393 42.55 99.053 44.82 97.581 46.109 C 96.083 47.481 94.353 48.313 92.656 48.895 C 89.253 49.901 86.084 50.417 82.972 50.683 C 76.791 51.257 71.242 50.924 66.633 50.442 C 57.407 49.419 51.916 47.689 52.008 47.282 C 52.099 46.824 57.706 47.756 66.799 48.188 C 71.333 48.379 76.766 48.463 82.656 47.756 C 85.584 47.44 88.712 46.833 91.633 45.934 C 93.039 45.436 94.386 44.737 95.401 43.797 C 96.433 42.866 96.974 41.668 96.749 40.67 C 96.591 39.639 95.559 38.691 94.286 38.068 C 92.997 37.436 91.483 37.103 89.977 36.912 C 86.916 36.596 83.829 36.87 80.934 37.361 C 75.119 38.35 69.994 40.18 65.759 41.776 C 61.55 43.381 58.072 44.986 55.876 45.901 C 53.83 46.625 52.174 47.223 51.999 47.29 Z" fill="rgb(236,79,83)"></path><path d="M 51.863 46.976 C 51.863 47.159 51.506 46.094 50.898 43.151 C 50.482 40.415 50.066 36.83 49.942 32.149 C 49.85 27.517 49.942 21.945 51.239 15.824 C 51.897 12.772 52.845 9.579 54.526 6.461 C 55.407 4.922 56.447 3.384 57.945 2.078 C 59.392 0.831 61.53 -0.4 64.043 0.124 C 66.547 0.648 68.103 2.777 68.71 4.631 C 69.384 6.552 69.467 8.465 69.334 10.253 C 68.926 13.77 68.153 16.889 67.171 19.858 C 65.266 25.77 62.778 30.735 60.524 34.776 C 55.957 42.851 52.205 47.217 51.863 46.968 C 51.481 46.702 54.542 41.92 58.519 33.729 C 60.474 29.637 62.695 24.681 64.359 18.984 C 65.216 16.174 65.898 13.055 66.214 10.02 C 66.306 8.531 66.198 7.018 65.723 5.72 C 65.274 4.407 64.384 3.442 63.377 3.251 C 62.371 2.993 61.09 3.567 60.016 4.49 C 58.927 5.421 58.028 6.685 57.254 7.991 C 55.765 10.677 54.8 13.621 54.11 16.473 C 52.729 22.203 52.396 27.633 52.196 32.157 C 52.021 36.656 52.121 40.481 52.105 42.868 C 51.963 45.038 51.863 46.793 51.863 46.976 Z" fill="rgb(236,79,83)"></path></g></svg>