<svg xmlns="http://www.w3.org/2000/svg" xmlns:xlink="http://www.w3.org/1999/xlink" viewBox="0 0 90.273 143.012" overflow="visible"><g><path d="M 71.149 54.105 C 41.317 69.763 15.005 84.598 0.848 92.7 C 0.399 98.676 0.098 104.418 0 109.471 C 11 103.102 45.433 83.362 84.631 62.995 C 82.985 60.542 77.93 57.37 71.149 54.099 Z" fill="rgb(0,64,64)"></path><path d="M 64.958 51.339 C 38.609 65.251 15.392 78.284 1.462 86.227 C 1.265 88.428 1.081 90.616 0.921 92.774 C 15.079 84.671 41.391 69.837 71.223 54.179 C 69.264 53.232 67.163 52.28 64.958 51.333 Z" fill="rgb(0,189,115)"></path><path d="M 9.68 39.691 C 8.322 41.775 6.873 47.511 5.528 55.122 C 14.454 50.141 23.413 45.221 32.405 40.361 C 20.944 37.552 11.639 36.685 9.68 39.691 Z" fill="rgb(0,64,64)"></path><path d="M 32.276 40.267 C 23.285 45.129 14.326 50.049 5.399 55.028 C 4.57 59.687 3.783 65.054 3.071 70.722 C 15.152 63.905 31.281 54.941 49.308 45.314 C 43.516 43.335 37.663 41.589 32.282 40.267 Z" fill="rgb(0,189,115)"></path><path d="M 49.431 45.185 C 31.41 54.812 15.281 63.776 3.194 70.593 C 2.567 75.604 2.002 80.848 1.536 86.042 C 15.466 78.093 38.682 65.067 65.032 51.154 C 60.179 49.077 54.836 47.036 49.431 45.191 Z" fill="rgb(0,64,64)"></path><path d="M 85.198 64.126 C 85.118 63.776 84.927 63.407 84.669 63.013 C 45.471 83.374 11.039 103.114 0.039 109.489 C -0.115 117.143 0.18 123.223 1.101 126.174 C 35.06 108.537 65.445 91.36 80.124 82.932 C 83.656 73.956 85.824 66.788 85.192 64.126 Z M 70.905 104.104 C 57.411 111.764 37.382 122.947 14.804 134.922 C 17.249 135.912 19.871 136.877 22.555 137.781 C 39.495 128.713 54.672 120.285 66.268 113.744 C 67.822 110.602 69.382 107.362 70.905 104.104 Z" fill="rgb(0,189,115)"></path><path d="M 22.676 137.836 C 34.414 141.789 47.189 144.476 50.174 142.146 C 52.428 140.381 59.301 128.141 66.389 113.799 C 51.906 121.97 37.334 129.983 22.676 137.836 Z M 80.252 82.993 C 65.566 91.422 35.181 108.592 1.228 126.236 C 1.437 126.893 1.671 127.41 1.941 127.736 C 3.642 129.789 8.685 132.457 14.925 134.984 C 37.503 123.008 57.532 111.826 71.026 104.166 C 74.46 96.838 77.709 89.448 80.252 82.993 Z" fill="rgb(0,64,64)"></path><path d="M 45.967 44.292 C 46.016 44.421 45.365 43.542 43.94 41.249 C 42.711 39.048 41.164 36.06 39.511 32.071 C 37.902 28.105 36.127 23.267 35.206 17.587 C 34.751 14.753 34.506 11.691 34.899 8.482 C 35.138 6.884 35.519 5.236 36.342 3.65 C 37.153 2.126 38.523 0.429 40.721 0.066 C 42.908 -0.303 44.873 0.933 45.991 2.285 C 47.183 3.669 47.883 5.255 48.368 6.816 C 49.191 9.945 49.584 12.896 49.744 15.767 C 50.106 21.478 49.658 26.593 49.105 30.841 C 47.944 39.337 46.255 44.384 45.967 44.304 C 45.629 44.225 46.728 39.079 47.447 30.663 C 47.779 26.464 48.049 21.435 47.576 15.933 C 47.373 13.197 46.913 10.277 46.157 7.505 C 45.733 6.165 45.113 4.855 44.229 3.847 C 43.363 2.82 42.177 2.212 41.102 2.408 C 40.009 2.556 39.045 3.57 38.406 4.769 C 37.761 5.986 37.405 7.406 37.184 8.82 C 36.803 11.685 36.975 14.568 37.35 17.279 C 38.111 22.72 39.677 27.521 41.065 31.487 C 42.46 35.433 43.86 38.667 44.689 40.745 C 45.334 42.552 45.684 43.536 45.961 44.304 Z" fill="rgb(236,79,83)"></path><path d="M 46.161 44.42 C 46.278 44.493 45.227 44.186 42.709 43.221 C 40.4 42.206 37.366 40.768 33.637 38.585 C 29.965 36.403 25.628 33.624 21.458 29.653 C 19.382 27.667 17.343 25.38 15.715 22.589 C 14.941 21.169 14.247 19.626 13.946 17.868 C 13.67 16.165 13.737 13.983 15.273 12.36 C 16.796 10.743 19.105 10.534 20.813 10.933 C 22.594 11.315 24.111 12.157 25.444 13.103 C 27.993 15.101 30.081 17.21 31.948 19.399 C 35.689 23.727 38.422 28.079 40.541 31.792 C 44.748 39.262 46.45 44.303 46.167 44.413 C 45.854 44.555 43.618 39.79 39.11 32.653 C 36.844 29.106 34.012 24.938 30.315 20.837 C 28.503 18.784 26.371 16.731 24.093 14.985 C 22.944 14.173 21.661 13.503 20.346 13.239 C 19.038 12.944 17.724 13.177 16.986 13.983 C 16.2 14.763 16.047 16.153 16.268 17.493 C 16.489 18.852 17.066 20.198 17.736 21.458 C 19.161 23.972 21.04 26.167 22.981 28.098 C 26.875 31.971 31.021 34.848 34.522 37.171 C 38.017 39.471 41.088 41.204 43.004 42.354 C 44.607 43.405 45.485 43.977 46.167 44.426 Z" fill="rgb(236,79,83)"></path><path d="M 45.769 44.336 C 45.671 44.428 46.211 43.482 47.729 41.25 C 49.246 39.234 51.346 36.609 54.325 33.486 C 57.298 30.412 60.995 26.828 65.817 23.68 C 68.224 22.119 70.915 20.655 74.01 19.715 C 75.57 19.291 77.229 18.965 79.01 19.082 C 80.73 19.205 82.836 19.776 84.059 21.639 C 85.281 23.496 84.949 25.789 84.163 27.363 C 83.383 29.01 82.216 30.295 80.981 31.371 C 78.451 33.393 75.92 34.943 73.365 36.252 C 68.292 38.895 63.44 40.555 59.337 41.766 C 51.107 44.139 45.812 44.637 45.769 44.336 C 45.702 43.998 50.855 42.916 58.833 40.174 C 62.807 38.779 67.506 36.99 72.346 34.328 C 74.76 33.037 77.247 31.432 79.47 29.619 C 80.521 28.684 81.467 27.59 82.032 26.373 C 82.621 25.168 82.695 23.834 82.081 22.93 C 81.503 21.989 80.189 21.516 78.838 21.418 C 77.462 21.319 76.025 21.571 74.643 21.934 C 71.873 22.746 69.305 24.067 66.984 25.512 C 62.322 28.414 58.569 31.789 55.504 34.66 C 52.464 37.531 50.075 40.125 48.515 41.723 C 47.12 43.045 46.365 43.764 45.775 44.324 Z" fill="rgb(236,79,83)"></path><path d="M 45.77 44.383 C 45.641 44.413 46.574 43.86 48.994 42.668 C 51.31 41.665 54.43 40.424 58.564 39.182 C 62.666 37.977 67.654 36.698 73.396 36.348 C 76.259 36.182 79.324 36.243 82.474 36.956 C 84.041 37.356 85.644 37.897 87.136 38.881 C 88.567 39.84 90.115 41.377 90.262 43.608 C 90.41 45.827 88.985 47.659 87.529 48.637 C 86.037 49.682 84.391 50.223 82.788 50.549 C 79.594 51.053 76.627 51.151 73.753 51.022 C 68.035 50.813 62.998 49.848 58.834 48.87 C 50.505 46.86 45.659 44.672 45.77 44.389 C 45.88 44.063 50.892 45.674 59.178 47.235 C 63.317 47.991 68.292 48.76 73.808 48.846 C 76.547 48.92 79.496 48.754 82.327 48.28 C 83.703 47.991 85.066 47.506 86.16 46.731 C 87.265 45.975 87.99 44.85 87.904 43.762 C 87.867 42.655 86.958 41.592 85.828 40.842 C 84.679 40.079 83.304 39.581 81.922 39.213 C 79.115 38.542 76.228 38.426 73.495 38.53 C 68.01 38.745 63.084 39.821 59 40.799 C 54.94 41.788 51.58 42.858 49.43 43.479 C 47.569 43.94 46.556 44.192 45.764 44.383 Z" fill="rgb(236,79,83)"></path><path d="M 45.753 44.294 C 45.735 44.429 45.587 43.347 45.452 40.649 C 45.44 38.122 45.532 34.759 46.017 30.474 C 46.527 26.226 47.313 21.136 49.248 15.714 C 50.224 13.015 51.483 10.218 53.381 7.599 C 54.364 6.314 55.494 5.054 56.981 4.07 C 58.424 3.13 60.451 2.312 62.551 3.056 C 64.646 3.794 65.77 5.822 66.095 7.55 C 66.47 9.333 66.316 11.06 65.985 12.665 C 65.192 15.806 64.111 18.572 62.865 21.161 C 60.42 26.337 57.552 30.597 55.021 34.04 C 49.899 40.913 45.986 44.509 45.765 44.3 C 45.507 44.067 48.959 40.095 53.658 33.081 C 55.979 29.571 58.645 25.298 60.893 20.251 C 62.035 17.761 63.049 14.982 63.724 12.191 C 64.001 10.808 64.093 9.369 63.804 8.054 C 63.546 6.738 62.797 5.632 61.765 5.281 C 60.739 4.876 59.4 5.3 58.264 6.044 C 57.11 6.8 56.115 7.869 55.236 8.994 C 53.516 11.318 52.276 13.925 51.293 16.482 C 49.328 21.616 48.382 26.571 47.675 30.714 C 46.987 34.845 46.65 38.356 46.373 40.575 C 46.066 42.468 45.894 43.501 45.765 44.306 Z" fill="rgb(236,79,83)"></path></g></svg>