<svg xmlns="http://www.w3.org/2000/svg" xmlns:xlink="http://www.w3.org/1999/xlink" viewBox="0 0 118.421 164.456" overflow="visible"><g><path d="M 43.47 58.028 C 43.531 57.862 44.053 55.914 44.809 53.4 C 45.736 50.584 47.272 46.385 48.733 41.185 C 50.226 35.978 51.749 29.683 52.431 22.614 C 52.744 19.091 52.83 15.354 52.289 11.641 C 52.031 9.79 51.608 7.928 50.864 6.28 C 50.177 4.639 48.948 3.194 47.843 3.09 C 46.774 2.875 45.398 4.03 44.508 5.561 C 43.587 7.086 42.917 8.856 42.456 10.67 C 41.584 14.376 40.921 18.052 40.694 21.599 C 40.086 28.687 40.479 35.16 41.019 40.552 C 42.156 51.359 43.912 57.912 43.488 58.035 C 43.126 58.164 40.614 51.771 38.913 40.834 C 38.096 35.376 37.457 28.761 37.936 21.39 C 38.102 17.702 38.722 13.86 39.613 9.901 C 40.104 7.897 40.823 5.869 41.984 3.926 C 42.589 2.893 43.373 1.975 44.299 1.215 C 45.276 0.416 46.743 -0.162 48.224 0.041 C 49.691 0.244 50.938 1.086 51.718 2.026 C 52.56 2.955 53.125 3.987 53.591 5.014 C 54.5 7.08 54.943 9.176 55.213 11.217 C 55.766 15.311 55.594 19.239 55.194 22.915 C 54.328 30.261 52.547 36.642 50.772 41.855 C 49.01 47.099 47.21 51.1 45.871 53.953 C 44.231 57.051 43.427 58.213 43.488 58.041 Z" fill="rgb(255,89,77)"></path><path d="M 43.679 58.148 C 43.568 58.006 42.346 56.654 40.847 54.877 C 39.183 52.806 36.794 49.585 33.539 46.013 C 30.308 42.423 26.199 38.341 20.991 34.874 C 18.393 33.159 15.482 31.634 12.337 30.731 C 10.771 30.313 9.144 30.024 7.565 30.11 C 6.011 30.184 4.482 30.682 3.665 31.61 C 2.855 32.514 2.83 33.854 3.401 35.243 C 3.96 36.626 5.041 37.905 6.22 39.011 C 8.714 41.224 11.404 43.253 14.076 44.907 C 19.4 48.306 24.621 50.703 29.055 52.554 C 37.961 56.224 43.777 57.718 43.679 58.154 C 43.611 58.547 37.574 57.804 28.312 54.595 C 23.7 52.972 18.258 50.734 12.638 47.335 C 9.801 45.663 7.013 43.665 4.23 41.243 C 2.849 39.964 1.503 38.47 0.65 36.448 C 0.257 35.427 -0.081 34.302 0.017 33.048 C 0.109 31.825 0.558 30.509 1.418 29.575 C 3.137 27.688 5.434 27.172 7.412 27.061 C 9.439 26.975 11.336 27.337 13.124 27.835 C 16.68 28.911 19.781 30.626 22.508 32.514 C 27.95 36.337 32.022 40.726 35.135 44.593 C 38.28 48.466 40.38 51.835 41.848 54.275 C 43.353 57.109 43.789 58.302 43.679 58.16 Z" fill="rgb(255,89,77)"></path><path d="M 25.949 158.06 C 37.857 152.841 80.812 134.098 115.642 120.1 C 115.095 118.311 114.475 116.387 113.799 114.34 C 77.778 128.848 33.601 148.169 23.953 152.404 C 24.665 154.562 25.341 156.461 25.943 158.054 Z" fill="rgb(253,63,49)"></path><path d="M 28.183 162.78 C 35.234 172.246 117.33 138.836 118.392 132.141 C 118.613 130.746 117.545 126.24 115.622 119.97 C 80.787 133.967 37.838 152.704 25.929 157.929 C 26.844 160.327 27.618 162.017 28.183 162.78 Z M 80.363 45.575 C 69.824 43.841 10.851 69.181 7.719 77.639 C 6.908 79.822 7.572 86.135 9.076 94.397 C 19.45 89.793 58.253 72.666 91.105 59.265 C 86.885 51.39 83.047 46.017 80.369 45.575 Z M 93.862 64.644 C 61.01 77.996 21.403 95.466 10.249 100.409 C 11.619 107.066 13.363 114.505 15.243 121.875 C 26.506 116.939 68.178 98.743 102.829 84.758 C 99.906 77.639 96.835 70.674 93.869 64.638 Z" fill="rgb(205,7,12)"></path><path d="M 91.241 59.322 C 58.395 72.729 19.586 89.855 9.213 94.453 C 9.563 96.365 9.95 98.375 10.379 100.472 C 21.539 95.523 61.147 78.059 93.993 64.707 C 93.059 62.813 92.138 61.012 91.235 59.322 Z" fill="rgb(253,63,49)"></path><path d="M 16.896 127.747 C 19.352 137.011 21.92 145.784 24.075 152.287 C 33.724 148.052 77.901 128.731 113.922 114.223 C 111.588 107.178 108.548 98.806 105.207 90.366 C 71.035 104.117 29.4 122.264 16.89 127.747 Z" fill="rgb(205,7,12)"></path><path d="M 102.941 84.833 C 68.29 98.818 26.618 117.008 15.354 121.95 C 15.852 123.911 16.361 125.872 16.877 127.809 C 29.388 122.325 71.016 104.179 105.195 90.427 C 104.458 88.558 103.703 86.696 102.941 84.833 Z" fill="rgb(253,63,49)"></path></g></svg>