<svg xmlns="http://www.w3.org/2000/svg" xmlns:xlink="http://www.w3.org/1999/xlink" viewBox="0 0 96 137.28" overflow="visible"><g><path d="M 28.4 56.309 C 35.939 57.331 44.589 70.663 49.628 71.55 C 53.701 72.268 69.73 62.72 78.013 65.578 C 85.049 68.013 89.25 77.697 93.45 80.467 C 95.287 72.045 96.27 65.227 95.607 62.433 C 93.347 52.932 9.32 32.639 3.362 39.832 C 1.214 42.418 0.224 53.028 0 65.897 C 0.311 66.017 0.647 66.129 1.03 66.217 C 4.281 66.943 20.861 55.28 28.4 56.309 Z" fill="rgb(0,161,87)"></path><path d="M 75.992 77.989 C 67.702 75.123 51.673 84.679 47.6 83.96 C 42.56 83.066 33.911 69.742 26.372 68.72 C 19.423 67.778 4.784 77.613 0 78.579 C 0.144 87.361 0.559 96.31 1.134 103.918 C 7.02 101.284 17.283 95.121 22.642 95.847 C 29.638 96.797 37.68 109.171 42.353 110.002 C 46.138 110.672 61.017 101.803 68.716 104.461 C 75.193 106.697 79.075 115.558 82.94 118.225 C 85.464 110.489 88.227 101.116 90.543 92.215 C 86.622 88.806 82.533 80.264 75.984 77.997 Z" fill="rgb(0,161,87)"></path><path d="M 47.658 84.264 C 51.731 84.982 67.76 75.434 76.05 78.292 C 82.599 80.551 86.688 89.101 90.609 92.51 C 91.696 88.335 92.686 84.256 93.501 80.503 C 89.3 77.733 85.107 68.049 78.063 65.615 C 69.773 62.748 53.744 72.305 49.678 71.586 C 44.639 70.692 35.99 57.368 28.45 56.346 C 20.911 55.324 4.331 66.98 1.08 66.253 C 0.697 66.165 0.362 66.062 0.05 65.934 C -0.022 70.077 -0.014 74.46 0.058 78.875 C 4.842 77.909 19.481 68.073 26.43 69.015 C 33.969 70.037 42.618 83.369 47.658 84.256 Z" fill="rgb(0,64,64)"></path><path d="M 40.739 121.989 C 36.059 121.159 28.025 108.784 21.029 107.834 C 16.468 107.212 8.338 111.595 2.396 114.54 C 2.939 118.979 3.554 122.204 4.185 123.538 C 7.787 131.146 72.27 141.971 76.775 135.082 C 77.469 134.012 78.468 131.76 79.634 128.687 C 76.279 125.102 72.638 118.356 67.111 116.448 C 59.412 113.79 44.525 122.659 40.747 121.989 Z" fill="rgb(0,161,87)"></path><path d="M 42.417 110.013 C 37.736 109.183 29.702 96.809 22.706 95.859 C 17.347 95.132 7.084 101.295 1.198 103.93 C 1.493 107.818 1.829 111.354 2.196 114.34 C 8.138 111.394 16.269 107.02 20.829 107.634 C 27.825 108.584 35.868 120.958 40.54 121.789 C 44.325 122.459 59.204 113.59 66.903 116.248 C 72.43 118.156 76.072 124.894 79.426 128.487 C 80.496 125.669 81.718 122.164 83.004 118.236 C 79.139 115.57 75.249 106.708 68.78 104.473 C 61.081 101.814 46.194 110.684 42.417 110.013 Z" fill="rgb(0,64,64)"></path><path d="M 50.124 45.234 C 50.203 45.386 49.413 44.66 47.536 42.472 C 45.915 40.365 43.902 37.546 41.626 33.675 C 39.398 29.827 36.882 25.1 35.133 19.36 C 34.27 16.494 33.583 13.365 33.543 9.972 C 33.575 8.272 33.735 6.491 34.382 4.703 C 35.021 2.987 36.243 0.951 38.599 0.232 C 40.939 -0.486 43.239 0.576 44.621 1.853 C 46.082 3.154 47.033 4.719 47.76 6.292 C 49.053 9.437 49.852 12.415 50.403 15.361 C 51.553 21.213 51.761 26.537 51.745 30.984 C 51.657 39.886 50.539 45.298 50.139 45.25 C 49.7 45.21 50.044 39.766 49.58 31.04 C 49.325 26.689 48.886 21.5 47.64 15.944 C 47.057 13.181 46.178 10.251 45.028 7.545 C 44.421 6.252 43.622 5.03 42.616 4.152 C 41.626 3.258 40.428 2.859 39.501 3.162 C 38.535 3.41 37.72 4.488 37.249 5.765 C 36.77 7.05 36.602 8.527 36.554 9.988 C 36.554 12.934 37.105 15.856 37.856 18.578 C 39.358 24.039 41.602 28.749 43.543 32.637 C 45.483 36.501 47.352 39.67 48.438 41.674 C 49.325 43.558 50.06 45.083 50.139 45.242 Z" fill="rgb(236,79,83)"></path><path d="M 50.261 45.243 C 50.421 45.315 49.343 45.211 46.523 44.604 C 43.96 43.91 40.645 42.872 36.492 41.164 C 32.395 39.447 27.531 37.196 22.66 33.683 C 20.24 31.919 17.796 29.843 15.711 27.161 C 14.705 25.788 13.763 24.279 13.196 22.459 C 12.668 20.702 12.413 18.347 13.85 16.351 C 15.28 14.364 17.756 13.821 19.625 14.004 C 21.573 14.156 23.283 14.835 24.808 15.641 C 27.739 17.373 30.175 19.257 32.403 21.269 C 36.852 25.237 40.246 29.356 42.921 32.901 C 48.233 40.046 50.613 45.035 50.269 45.235 C 49.894 45.467 46.875 40.924 41.228 34.25 C 38.393 30.945 34.903 27.073 30.55 23.393 C 28.418 21.549 25.942 19.744 23.394 18.283 C 22.125 17.621 20.751 17.134 19.425 17.038 C 18.091 16.918 16.901 17.325 16.342 18.132 C 15.727 18.914 15.727 20.263 16.127 21.564 C 16.526 22.882 17.285 24.159 18.131 25.349 C 19.912 27.704 22.125 29.691 24.361 31.4 C 28.857 34.841 33.497 37.236 37.395 39.168 C 41.276 41.068 44.679 42.465 46.763 43.415 C 48.608 44.381 50.117 45.155 50.277 45.227 Z" fill="rgb(236,79,83)"></path><path d="M 49.935 45.19 C 49.824 45.326 50.175 44.304 51.421 41.702 C 52.691 39.37 54.456 36.385 57.075 32.736 C 59.695 29.144 63.001 24.929 67.546 21.009 C 69.814 19.061 72.402 17.169 75.492 15.756 C 77.058 15.093 78.751 14.518 80.652 14.391 C 82.481 14.279 84.837 14.574 86.45 16.434 C 88.055 18.286 88.015 20.817 87.4 22.589 C 86.801 24.45 85.755 25.958 84.613 27.252 C 82.257 29.703 79.853 31.643 77.385 33.343 C 72.497 36.76 67.705 39.115 63.632 40.895 C 55.454 44.416 50.047 45.581 49.935 45.198 C 49.8 44.775 54.919 42.891 62.706 38.931 C 66.579 36.935 71.148 34.437 75.732 31.044 C 78.024 29.391 80.348 27.403 82.353 25.264 C 83.287 24.186 84.086 22.957 84.477 21.687 C 84.9 20.418 84.781 19.165 84.118 18.438 C 83.495 17.656 82.185 17.352 80.827 17.432 C 79.454 17.512 78.032 17.959 76.682 18.51 C 73.983 19.7 71.539 21.392 69.351 23.172 C 64.966 26.757 61.564 30.709 58.784 34.062 C 56.037 37.399 53.897 40.392 52.499 42.196 C 51.133 43.769 50.039 45.063 49.927 45.198 Z" fill="rgb(236,79,83)"></path><path d="M 49.935 45.398 C 49.776 45.462 50.582 44.752 52.946 43.099 C 55.206 41.702 58.217 39.978 62.299 38.102 C 66.356 36.273 71.307 34.246 77.201 33.08 C 80.14 32.505 83.327 32.138 86.713 32.441 C 88.407 32.641 90.156 32.976 91.873 33.807 C 93.518 34.613 95.419 36.034 95.898 38.445 C 96.377 40.848 95.091 43.027 93.678 44.265 C 92.24 45.582 90.579 46.38 88.95 46.939 C 85.683 47.905 82.64 48.4 79.653 48.656 C 73.719 49.206 68.392 48.887 63.968 48.424 C 55.111 47.442 49.84 45.782 49.927 45.39 C 50.015 44.951 55.398 45.845 64.127 46.261 C 68.48 46.444 73.695 46.524 79.35 45.845 C 82.161 45.542 85.164 44.959 87.967 44.097 C 89.317 43.618 90.611 42.947 91.585 42.045 C 92.575 41.151 93.095 40.002 92.879 39.044 C 92.727 38.054 91.737 37.144 90.515 36.545 C 89.277 35.938 87.823 35.619 86.378 35.435 C 83.439 35.132 80.476 35.395 77.697 35.866 C 72.114 36.816 67.194 38.573 63.129 40.105 C 59.088 41.646 55.75 43.187 53.641 44.065 C 51.676 44.76 50.087 45.335 49.919 45.398 Z" fill="rgb(236,79,83)"></path><path d="M 49.789 45.097 C 49.789 45.273 49.445 44.251 48.862 41.425 C 48.463 38.798 48.064 35.357 47.944 30.863 C 47.856 26.416 47.944 21.067 49.19 15.191 C 49.821 12.262 50.731 9.196 52.345 6.202 C 53.191 4.725 54.189 3.248 55.627 1.995 C 57.017 0.797 59.069 -0.384 61.481 0.119 C 63.885 0.622 65.379 2.666 65.962 4.446 C 66.609 6.29 66.688 8.126 66.561 9.843 C 66.169 13.22 65.427 16.213 64.484 19.063 C 62.655 24.739 60.267 29.505 58.103 33.385 C 53.718 41.137 50.116 45.328 49.789 45.089 C 49.421 44.833 52.361 40.243 56.178 32.379 C 58.055 28.452 60.187 23.694 61.785 18.225 C 62.607 15.527 63.262 12.533 63.566 9.619 C 63.654 8.19 63.55 6.737 63.094 5.492 C 62.663 4.23 61.809 3.304 60.842 3.121 C 59.876 2.873 58.646 3.424 57.616 4.31 C 56.569 5.204 55.707 6.418 54.964 7.671 C 53.535 10.25 52.608 13.076 51.945 15.814 C 50.619 21.315 50.3 26.528 50.108 30.871 C 49.941 35.19 50.036 38.862 50.02 41.153 C 49.885 43.237 49.789 44.921 49.789 45.097 Z" fill="rgb(236,79,83)"></path></g></svg>