<svg xmlns="http://www.w3.org/2000/svg" xmlns:xlink="http://www.w3.org/1999/xlink" viewBox="0 0 95.414 138.85" overflow="visible"><g><path d="M 69.342 39.896 C 51.162 68.279 35.623 94.197 27.332 108.25 C 29.893 113.66 32.472 118.799 34.886 123.25 C 41.292 112.264 61.456 78.059 85.453 40.953 C 82.812 39.637 76.848 39.385 69.342 39.902 Z" fill="rgb(230,52,57)"></path><path d="M 62.494 40.592 C 46.476 65.73 32.743 88.555 24.568 102.357 C 25.483 104.367 26.41 106.359 27.338 108.314 C 35.629 94.26 51.162 68.342 69.348 39.959 C 67.18 40.107 64.883 40.322 62.5 40.592 Z" fill="rgb(205,7,12)"></path><path d="M 8.608 58.008 C 8.461 60.492 10.039 66.191 12.625 73.475 C 17.354 65.662 22.778 56.803 28.686 47.336 C 17.342 50.57 8.823 54.43 8.608 58.008 Z" fill="rgb(230,52,57)"></path><path d="M 28.652 47.391 C 23.239 56.068 17.885 64.781 12.591 73.531 C 14.176 77.994 16.141 83.047 18.327 88.322 C 25.452 76.414 35.04 60.639 45.942 43.34 C 39.935 44.49 33.977 45.873 28.652 47.391 Z" fill="rgb(255,248,229)"></path><path d="M 46.04 43.113 C 36.662 57.999 27.456 72.994 18.426 88.094 C 20.36 92.76 22.461 97.592 24.623 102.338 C 32.798 88.537 46.531 65.711 62.549 40.574 C 57.304 41.17 51.647 42.043 46.04 43.119 Z" fill="rgb(230,52,57)"></path><path d="M 86.583 41.889 C 86.337 41.625 85.993 41.398 85.575 41.189 C 61.579 78.301 41.415 112.506 35.009 123.486 C 38.657 130.217 41.925 135.35 44.185 137.453 C 64.975 105.307 82.885 75.338 91.478 60.738 C 90.114 51.191 88.45 43.887 86.583 41.883 Z" fill="rgb(255,248,229)"></path><path d="M 94.014 83.607 C 86.073 96.947 74.194 116.582 60.498 138.172 C 63.108 137.822 65.872 137.361 68.648 136.82 C 78.887 120.547 87.909 105.707 94.751 94.279 C 94.549 90.781 94.303 87.191 94.021 83.607 Z" fill="rgb(205,7,12)"></path><path d="M 68.593 136.74 C 80.748 134.361 93.179 130.371 94.616 126.867 C 95.703 124.217 95.63 110.176 94.696 94.205 C 86.151 108.48 77.449 122.661 68.593 136.746 Z M 91.515 60.559 C 82.922 75.154 65.006 105.129 44.222 137.275 C 44.725 137.748 45.186 138.074 45.585 138.221 C 48.079 139.168 53.779 138.984 60.455 138.086 C 74.151 116.496 86.036 96.861 93.971 83.52 C 93.333 75.455 92.503 67.426 91.521 60.553 Z" fill="rgb(230,52,57)"></path><path d="M 42.893 44.028 C 42.998 44.114 41.997 43.677 39.626 42.386 C 37.47 41.083 34.651 39.251 31.242 36.601 C 27.882 33.952 23.952 30.626 20.34 26.144 C 18.547 23.907 16.821 21.368 15.574 18.386 C 14.991 16.874 14.505 15.257 14.438 13.474 C 14.389 11.753 14.745 9.595 16.471 8.187 C 18.191 6.78 20.506 6.884 22.146 7.505 C 23.866 8.12 25.254 9.146 26.451 10.265 C 28.712 12.577 30.511 14.944 32.071 17.36 C 35.216 22.142 37.347 26.814 38.969 30.773 C 42.156 38.728 43.188 43.954 42.893 44.028 C 42.562 44.126 40.971 39.11 37.439 31.437 C 35.652 27.626 33.398 23.12 30.272 18.571 C 28.748 16.296 26.9 13.985 24.873 11.95 C 23.841 10.997 22.656 10.167 21.39 9.724 C 20.131 9.263 18.799 9.319 17.963 10.019 C 17.085 10.689 16.747 12.048 16.79 13.407 C 16.833 14.784 17.226 16.192 17.73 17.532 C 18.817 20.212 20.389 22.634 22.06 24.798 C 25.413 29.151 29.148 32.544 32.311 35.304 C 35.474 38.04 38.293 40.161 40.037 41.556 L 42.899 44.021 Z" fill="rgb(236,79,83)"></path><path d="M 42.836 44.083 C 42.971 44.09 41.909 44.342 39.243 44.753 C 36.737 45.018 33.384 45.27 29.072 45.221 C 24.797 45.141 19.657 44.876 14.074 43.487 C 11.291 42.786 8.386 41.815 5.592 40.192 C 4.216 39.344 2.852 38.348 1.716 36.965 C 0.635 35.624 -0.385 33.688 0.144 31.524 C 0.666 29.366 2.57 28.044 4.253 27.546 C 5.991 26.993 7.723 26.975 9.35 27.141 C 12.55 27.614 15.412 28.407 18.115 29.391 C 23.508 31.303 28.028 33.725 31.707 35.901 C 39.053 40.309 43.027 43.844 42.836 44.083 C 42.633 44.366 38.334 41.329 30.89 37.358 C 27.162 35.397 22.648 33.178 17.409 31.45 C 14.817 30.559 11.955 29.833 9.111 29.44 C 7.711 29.305 6.267 29.36 4.996 29.772 C 3.712 30.165 2.686 31.02 2.447 32.083 C 2.152 33.147 2.705 34.432 3.552 35.489 C 4.418 36.559 5.585 37.444 6.789 38.206 C 9.271 39.682 11.991 40.659 14.626 41.378 C 19.927 42.817 24.951 43.26 29.14 43.549 C 33.316 43.819 36.836 43.801 39.071 43.85 C 40.987 43.967 42.025 44.034 42.842 44.083 Z" fill="rgb(236,79,83)"></path><path d="M 42.705 44.166 C 42.668 44.295 42.668 43.207 42.883 40.514 C 43.202 38.012 43.73 34.686 44.775 30.5 C 45.837 26.356 47.281 21.408 49.915 16.287 C 51.236 13.736 52.851 11.129 55.075 8.781 C 56.217 7.637 57.501 6.537 59.104 5.75 C 60.658 5.006 62.77 4.459 64.76 5.473 C 66.738 6.475 67.586 8.639 67.684 10.391 C 67.819 12.211 67.444 13.902 66.904 15.451 C 65.706 18.457 64.275 21.063 62.697 23.467 C 59.595 28.281 56.199 32.123 53.232 35.209 C 47.256 41.35 42.901 44.406 42.711 44.166 C 42.484 43.902 46.427 40.416 52.004 34.078 C 54.768 30.9 57.967 27.014 60.854 22.305 C 62.316 19.988 63.679 17.363 64.717 14.682 C 65.172 13.348 65.448 11.934 65.344 10.594 C 65.258 9.254 64.662 8.055 63.686 7.576 C 62.721 7.041 61.339 7.281 60.117 7.871 C 58.876 8.467 57.746 9.395 56.727 10.397 C 54.718 12.475 53.146 14.897 51.838 17.301 C 49.221 22.133 47.631 26.922 46.384 30.936 C 45.162 34.938 44.363 38.375 43.798 40.539 C 43.245 42.377 42.938 43.379 42.705 44.16 Z" fill="rgb(236,79,83)"></path><path d="M 42.698 44.346 C 42.599 44.438 43.14 43.491 44.657 41.259 C 46.174 39.243 48.274 36.618 51.247 33.489 C 54.214 30.409 57.917 26.831 62.733 23.684 C 65.14 22.122 67.83 20.659 70.926 19.719 C 72.486 19.294 74.144 18.969 75.925 19.079 C 77.645 19.202 79.752 19.774 80.974 21.637 C 82.196 23.493 81.865 25.786 81.085 27.36 C 80.305 29.007 79.138 30.292 77.909 31.368 C 75.385 33.391 72.848 34.946 70.293 36.255 C 65.22 38.905 60.368 40.565 56.265 41.776 C 48.035 44.155 42.741 44.653 42.698 44.352 C 42.63 44.014 47.783 42.932 55.755 40.184 C 59.723 38.788 64.428 36.993 69.268 34.337 C 71.681 33.046 74.163 31.442 76.392 29.628 C 77.442 28.694 78.388 27.6 78.953 26.382 C 79.543 25.178 79.617 23.844 79.002 22.94 C 78.425 21.999 77.111 21.526 75.753 21.428 C 74.378 21.329 72.94 21.581 71.558 21.944 C 68.788 22.755 66.221 24.083 63.899 25.522 C 59.238 28.423 55.491 31.798 52.426 34.675 C 49.386 37.553 46.997 40.141 45.437 41.745 C 44.049 43.067 43.287 43.786 42.698 44.352 Z" fill="rgb(236,79,83)"></path><path d="M 42.687 44.229 C 42.737 44.358 42.073 43.485 40.624 41.217 C 39.365 39.028 37.78 36.059 36.085 32.094 C 34.427 28.153 32.59 23.334 31.595 17.666 C 31.11 14.838 30.821 11.782 31.171 8.567 C 31.392 6.963 31.749 5.309 32.553 3.717 C 33.346 2.186 34.697 0.471 36.889 0.077 C 39.076 -0.322 41.054 0.889 42.19 2.229 C 43.394 3.594 44.119 5.174 44.622 6.729 C 45.482 9.852 45.918 12.791 46.115 15.661 C 46.551 21.373 46.164 26.493 45.666 30.741 C 44.61 39.25 42.988 44.315 42.694 44.241 C 42.356 44.168 43.388 39.004 44.002 30.582 C 44.284 26.377 44.487 21.348 43.947 15.852 C 43.713 13.123 43.216 10.209 42.423 7.442 C 41.981 6.108 41.348 4.805 40.452 3.809 C 39.573 2.795 38.382 2.198 37.307 2.407 C 36.214 2.567 35.262 3.594 34.642 4.799 C 34.009 6.022 33.677 7.448 33.468 8.862 C 33.124 11.733 33.333 14.616 33.745 17.321 C 34.574 22.756 36.202 27.532 37.639 31.479 C 39.082 35.407 40.525 38.629 41.379 40.694 C 42.049 42.495 42.411 43.473 42.694 44.241 Z" fill="rgb(236,79,83)"></path></g></svg>