<svg xmlns="http://www.w3.org/2000/svg" xmlns:xlink="http://www.w3.org/1999/xlink" viewBox="0 0 110.412 153.334" overflow="visible"><g><path d="M 40.53 54.104 C 40.587 53.949 41.074 52.132 41.778 49.788 C 42.643 47.163 44.075 43.248 45.437 38.399 C 46.829 33.545 48.249 27.676 48.885 21.084 C 49.177 17.8 49.257 14.315 48.753 10.854 C 48.512 9.128 48.117 7.392 47.424 5.856 C 46.783 4.325 45.638 2.978 44.607 2.881 C 43.611 2.68 42.328 3.758 41.498 5.185 C 40.639 6.606 40.015 8.257 39.585 9.948 C 38.772 13.404 38.154 16.832 37.942 20.139 C 37.375 26.747 37.741 32.783 38.245 37.809 C 39.304 47.885 40.942 53.995 40.547 54.11 C 40.209 54.23 37.867 48.269 36.281 38.073 C 35.519 32.983 34.924 26.816 35.371 19.944 C 35.525 16.505 36.103 12.923 36.934 9.232 C 37.392 7.363 38.062 5.472 39.144 3.66 C 39.709 2.697 40.44 1.841 41.303 1.133 C 42.213 0.388 43.582 -0.151 44.962 0.038 C 46.331 0.227 47.493 1.012 48.22 1.889 C 49.005 2.755 49.532 3.718 49.967 4.675 C 50.814 6.601 51.227 8.555 51.479 10.458 C 51.994 14.275 51.834 17.938 51.461 21.365 C 50.654 28.214 48.993 34.164 47.339 39.024 C 45.695 43.913 44.017 47.644 42.769 50.304 C 41.24 53.193 40.49 54.276 40.547 54.115 Z" fill="rgb(255,89,77)"></path><path d="M 40.724 54.215 C 40.621 54.083 39.482 52.822 38.085 51.166 C 36.533 49.234 34.305 46.231 31.27 42.901 C 28.258 39.554 24.427 35.748 19.571 32.516 C 17.149 30.916 14.435 29.495 11.503 28.652 C 10.043 28.263 8.525 27.993 7.054 28.074 C 5.605 28.142 4.179 28.607 3.417 29.472 C 2.662 30.315 2.639 31.564 3.171 32.859 C 3.692 34.149 4.7 35.341 5.8 36.373 C 8.125 38.436 10.633 40.328 13.124 41.869 C 18.088 45.039 22.956 47.274 27.09 48.999 C 35.393 52.421 40.816 53.814 40.724 54.221 C 40.661 54.588 35.033 53.894 26.397 50.902 C 22.097 49.389 17.023 47.303 11.784 44.133 C 9.138 42.574 6.538 40.712 3.944 38.453 C 2.656 37.261 1.402 35.868 0.606 33.983 C 0.239 33.031 -0.076 31.982 0.016 30.813 C 0.102 29.673 0.52 28.446 1.322 27.575 C 2.925 25.815 5.067 25.334 6.911 25.231 C 8.8 25.15 10.57 25.489 12.236 25.953 C 15.552 26.956 18.443 28.555 20.986 30.315 C 26.059 33.88 29.856 37.972 32.759 41.577 C 35.691 45.188 37.649 48.329 39.018 50.604 C 40.421 53.247 40.828 54.358 40.724 54.227 Z" fill="rgb(255,89,77)"></path><path d="M 24.194 147.37 C 35.297 142.504 75.347 125.028 107.821 111.978 C 107.311 110.31 106.733 108.516 106.103 106.607 C 72.518 120.134 31.329 138.148 22.333 142.097 C 22.997 144.109 23.627 145.88 24.188 147.364 Z" fill="rgb(253,63,49)"></path><path d="M 26.277 151.771 C 32.851 160.597 109.395 129.446 110.385 123.204 C 110.591 121.903 109.595 117.702 107.803 111.856 C 75.323 124.907 35.279 142.377 24.175 147.248 C 25.029 149.484 25.75 151.06 26.277 151.771 Z M 74.928 42.493 C 65.101 40.876 10.117 64.502 7.197 72.388 C 6.441 74.423 7.059 80.309 8.462 88.013 C 18.134 83.72 54.313 67.752 84.943 55.257 C 81.009 47.915 77.43 42.905 74.934 42.493 Z M 87.514 60.272 C 56.884 72.721 19.955 89.01 9.556 93.618 C 10.833 99.825 12.459 106.761 14.212 113.633 C 24.714 109.03 63.567 92.065 95.875 79.026 C 93.149 72.388 90.286 65.895 87.52 60.266 Z" fill="rgb(205,7,12)"></path><path d="M 85.07 55.31 C 54.446 67.81 18.261 83.778 8.589 88.065 C 8.916 89.848 9.277 91.722 9.677 93.677 C 20.082 89.063 57.011 72.779 87.636 60.33 C 86.765 58.565 85.906 56.886 85.065 55.31 Z" fill="rgb(253,63,49)"></path><path d="M 15.753 119.108 C 18.044 127.745 20.437 135.924 22.447 141.988 C 31.443 138.039 72.633 120.025 106.218 106.498 C 104.042 99.93 101.207 92.123 98.092 84.254 C 66.231 97.075 27.412 113.995 15.747 119.108 Z" fill="rgb(205,7,12)"></path><path d="M 95.979 79.096 C 63.671 92.135 24.818 109.095 14.316 113.703 C 14.78 115.531 15.255 117.359 15.736 119.165 C 27.4 114.052 66.213 97.133 98.08 84.311 C 97.393 82.569 96.689 80.832 95.979 79.096 Z" fill="rgb(253,63,49)"></path></g></svg>