<svg xmlns="http://www.w3.org/2000/svg" xmlns:xlink="http://www.w3.org/1999/xlink" viewBox="0 0 89.403 130.103" overflow="visible"><g><path d="M 64.974 37.382 C 47.939 63.977 33.379 88.262 25.61 101.43 C 28.01 106.499 30.427 111.315 32.688 115.485 C 38.691 105.192 57.584 73.142 80.069 38.373 C 77.594 37.14 72.006 36.904 64.974 37.388 Z" fill="rgb(230,52,57)"></path><path d="M 58.557 38.035 C 43.548 61.589 30.68 82.976 23.02 95.908 C 23.877 97.792 24.746 99.658 25.615 101.49 C 33.385 88.322 47.939 64.037 64.98 37.442 C 62.948 37.58 60.796 37.781 58.563 38.035 Z" fill="rgb(205,7,12)"></path><path d="M 8.066 54.354 C 7.928 56.681 9.407 62.021 11.83 68.847 C 16.261 61.525 21.343 53.225 26.879 44.354 C 16.249 47.384 8.267 51.001 8.066 54.354 Z" fill="rgb(230,52,57)"></path><path d="M 26.847 44.406 C 21.775 52.536 16.758 60.7 11.798 68.898 C 13.283 73.08 15.124 77.815 17.173 82.758 C 23.849 71.6 32.832 56.819 43.047 40.61 C 37.419 41.687 31.837 42.983 26.847 44.406 Z" fill="rgb(255,248,229)"></path><path d="M 43.139 40.397 C 34.352 54.345 25.726 68.395 17.265 82.544 C 19.078 86.916 21.046 91.444 23.072 95.891 C 30.732 82.959 43.6 61.571 58.609 38.018 C 53.694 38.576 48.394 39.394 43.139 40.402 Z" fill="rgb(230,52,57)"></path><path d="M 81.128 39.25 C 80.898 39.003 80.576 38.79 80.184 38.594 C 57.699 73.368 38.806 105.418 32.803 115.706 C 36.222 122.014 39.284 126.823 41.401 128.793 C 60.882 98.673 77.664 70.592 85.715 56.911 C 84.437 47.966 82.878 41.122 81.128 39.245 Z" fill="rgb(255,248,229)"></path><path d="M 88.092 78.339 C 80.65 90.839 69.52 109.237 56.687 129.467 C 59.132 129.139 61.722 128.707 64.323 128.2 C 73.917 112.953 82.371 99.048 88.782 88.339 C 88.592 85.062 88.362 81.698 88.097 78.339 Z" fill="rgb(205,7,12)"></path><path d="M 64.272 128.125 C 75.661 125.896 87.309 122.158 88.656 118.874 C 89.674 116.392 89.605 103.235 88.73 88.27 C 80.723 101.646 72.57 114.934 64.272 128.131 Z M 85.749 56.744 C 77.698 70.419 60.911 98.506 41.436 128.626 C 41.908 129.07 42.339 129.375 42.714 129.513 C 45.05 130.401 50.391 130.228 56.646 129.387 C 69.48 109.157 80.616 90.759 88.051 78.259 C 87.453 70.701 86.676 63.178 85.755 56.738 Z" fill="rgb(230,52,57)"></path><path d="M 40.191 41.254 C 40.289 41.335 39.351 40.926 37.129 39.716 C 35.109 38.495 32.468 36.778 29.274 34.296 C 26.126 31.813 22.443 28.697 19.059 24.497 C 17.378 22.401 15.761 20.022 14.593 17.228 C 14.046 15.811 13.592 14.296 13.528 12.625 C 13.482 11.013 13.816 8.991 15.433 7.672 C 17.045 6.353 19.214 6.45 20.751 7.032 C 22.362 7.608 23.663 8.57 24.785 9.619 C 26.903 11.784 28.589 14.002 30.051 16.266 C 32.997 20.747 34.994 25.125 36.514 28.835 C 39.5 36.289 40.467 41.185 40.191 41.254 C 39.88 41.346 38.39 36.646 35.081 29.457 C 33.406 25.886 31.294 21.663 28.365 17.401 C 26.937 15.269 25.205 13.104 23.306 11.197 C 22.339 10.304 21.228 9.526 20.043 9.112 C 18.863 8.68 17.614 8.732 16.832 9.388 C 16.009 10.016 15.692 11.289 15.732 12.562 C 15.773 13.852 16.141 15.171 16.613 16.427 C 17.632 18.939 19.105 21.208 20.67 23.236 C 23.812 27.314 27.311 30.494 30.275 33.08 C 33.239 35.643 35.881 37.631 37.515 38.938 L 40.197 41.248 Z" fill="rgb(236,79,83)"></path><path d="M 40.138 41.306 C 40.264 41.312 39.269 41.548 36.771 41.934 C 34.423 42.182 31.281 42.418 27.241 42.372 C 23.235 42.297 18.418 42.049 13.187 40.747 C 10.58 40.091 7.858 39.181 5.239 37.66 C 3.95 36.865 2.673 35.932 1.608 34.636 C 0.595 33.38 -0.36 31.566 0.135 29.538 C 0.624 27.516 2.408 26.278 3.985 25.811 C 5.613 25.293 7.236 25.275 8.761 25.431 C 11.76 25.874 14.442 26.618 16.974 27.539 C 22.027 29.331 26.262 31.6 29.709 33.639 C 36.592 37.769 40.316 41.082 40.138 41.306 C 39.948 41.571 35.919 38.726 28.944 35.004 C 25.451 33.167 21.221 31.087 16.312 29.469 C 13.883 28.634 11.201 27.954 8.537 27.585 C 7.225 27.459 5.872 27.51 4.681 27.896 C 3.478 28.265 2.517 29.066 2.293 30.062 C 2.017 31.059 2.534 32.263 3.329 33.253 C 4.14 34.256 5.234 35.085 6.362 35.799 C 8.687 37.182 11.236 38.098 13.705 38.772 C 18.671 40.12 23.379 40.534 27.304 40.805 C 31.217 41.058 34.515 41.041 36.61 41.087 C 38.405 41.197 39.378 41.26 40.143 41.306 Z" fill="rgb(236,79,83)"></path><path d="M 40.014 41.383 C 39.98 41.504 39.98 40.485 40.181 37.962 C 40.481 35.617 40.976 32.501 41.954 28.578 C 42.949 24.696 44.302 20.059 46.771 15.261 C 48.008 12.87 49.522 10.428 51.605 8.227 C 52.675 7.156 53.878 6.125 55.38 5.388 C 56.836 4.691 58.816 4.178 60.681 5.128 C 62.534 6.067 63.328 8.095 63.42 9.737 C 63.547 11.442 63.196 13.026 62.689 14.477 C 61.567 17.294 60.226 19.736 58.747 21.989 C 55.841 26.499 52.658 30.099 49.878 32.991 C 44.279 38.745 40.199 41.608 40.02 41.383 C 39.807 41.136 43.502 37.87 48.727 31.931 C 51.317 28.953 54.316 25.312 57.02 20.9 C 58.39 18.728 59.668 16.269 60.64 13.757 C 61.066 12.507 61.325 11.182 61.227 9.927 C 61.147 8.671 60.588 7.548 59.673 7.098 C 58.77 6.597 57.475 6.822 56.33 7.375 C 55.167 7.934 54.108 8.804 53.153 9.742 C 51.271 11.689 49.798 13.959 48.572 16.211 C 46.12 20.739 44.63 25.226 43.462 28.987 C 42.316 32.737 41.568 35.957 41.039 37.985 C 40.521 39.707 40.233 40.646 40.014 41.378 Z" fill="rgb(236,79,83)"></path><path d="M 40.008 41.552 C 39.916 41.638 40.422 40.751 41.843 38.66 C 43.265 36.771 45.233 34.311 48.019 31.379 C 50.798 28.493 54.268 25.141 58.78 22.192 C 61.036 20.729 63.557 19.358 66.458 18.476 C 67.919 18.079 69.473 17.774 71.142 17.877 C 72.754 17.992 74.727 18.528 75.873 20.273 C 77.018 22.013 76.707 24.162 75.976 25.636 C 75.245 27.18 74.152 28.384 73.001 29.392 C 70.636 31.287 68.259 32.744 65.865 33.971 C 61.111 36.454 56.565 38.009 52.72 39.144 C 45.009 41.373 40.048 41.84 40.008 41.558 C 39.944 41.241 44.773 40.227 52.243 37.652 C 55.96 36.345 60.369 34.663 64.904 32.174 C 67.165 30.964 69.49 29.461 71.579 27.762 C 72.564 26.886 73.45 25.861 73.979 24.72 C 74.532 23.591 74.601 22.341 74.025 21.495 C 73.484 20.613 72.253 20.17 70.981 20.078 C 69.692 19.985 68.345 20.222 67.05 20.561 C 64.455 21.322 62.049 22.566 59.874 23.914 C 55.506 26.633 51.995 29.795 49.124 32.491 C 46.275 35.187 44.036 37.612 42.574 39.115 C 41.274 40.354 40.56 41.028 40.008 41.558 Z" fill="rgb(236,79,83)"></path><path d="M 39.998 41.443 C 40.044 41.564 39.423 40.746 38.064 38.62 C 36.885 36.57 35.4 33.787 33.812 30.072 C 32.258 26.38 30.537 21.864 29.605 16.553 C 29.15 13.903 28.88 11.04 29.208 8.027 C 29.415 6.524 29.749 4.975 30.502 3.483 C 31.245 2.048 32.511 0.441 34.565 0.073 C 36.614 -0.302 38.467 0.833 39.532 2.089 C 40.66 3.367 41.339 4.848 41.811 6.305 C 42.617 9.231 43.025 11.985 43.209 14.675 C 43.618 20.026 43.255 24.824 42.789 28.805 C 41.799 36.777 40.28 41.523 40.004 41.454 C 39.687 41.385 40.654 36.546 41.23 28.655 C 41.494 24.715 41.684 20.003 41.178 14.853 C 40.959 12.296 40.493 9.565 39.751 6.973 C 39.336 5.723 38.744 4.502 37.903 3.569 C 37.08 2.619 35.964 2.06 34.957 2.256 C 33.932 2.405 33.04 3.367 32.459 4.496 C 31.866 5.643 31.556 6.979 31.36 8.304 C 31.038 10.994 31.233 13.696 31.619 16.23 C 32.396 21.322 33.921 25.798 35.268 29.496 C 36.62 33.177 37.972 36.195 38.772 38.131 C 39.4 39.818 39.739 40.734 40.004 41.454 Z" fill="rgb(236,79,83)"></path></g></svg>