<svg xmlns="http://www.w3.org/2000/svg" xmlns:xlink="http://www.w3.org/1999/xlink" viewBox="0 0 356.883 607.335" overflow="visible"><g><g transform="translate(0 0)"><path d="M 306.39 0.427 C 304.996 -3.292 255.799 18.32 257.353 25.973 C 257.365 26.046 257.414 26.188 257.481 26.366 C 262.087 22.248 276.188 11.497 306.617 1.576 C 306.58 1.164 306.513 0.765 306.384 0.427 Z" fill="rgb(108,28,27)"></path><path d="M 304.13 15.373 C 304.155 15.318 305.168 15.631 306.961 16.351 C 308.749 17.082 311.334 18.176 314.362 19.922 C 315.86 20.819 317.518 21.827 318.961 23.413 C 319.34 23.83 319.649 24.306 319.876 24.821 C 320.122 25.38 320.183 26.02 320.03 26.665 C 319.969 26.997 319.717 27.366 319.354 27.575 C 318.986 27.735 318.611 27.753 318.292 27.704 C 317.641 27.612 317.088 27.372 316.548 27.108 C 314.411 26.026 312.482 24.507 310.499 22.915 C 308.534 21.299 306.562 19.553 304.597 17.678 L 305.408 17.377 C 305.297 18.57 305.144 19.774 304.935 20.985 C 304.425 23.887 303.645 26.665 302.601 29.24 C 301.508 31.785 300.347 34.275 298.265 36.051 C 297.731 36.445 297.025 36.887 296.177 36.678 C 295.33 36.438 294.943 35.713 294.716 35.129 C 294.255 33.808 294.544 32.578 294.771 31.453 C 295.355 29.216 296.325 27.329 297.215 25.632 C 299.033 22.252 300.826 19.719 302.061 17.973 C 302.687 17.107 303.191 16.449 303.547 16.013 C 303.891 15.588 304.124 15.343 304.13 15.379 C 304.186 15.422 303.522 16.394 302.368 18.189 C 301.232 19.983 299.537 22.571 297.817 25.946 C 296.976 27.636 296.061 29.523 295.545 31.644 C 295.336 32.689 295.14 33.844 295.502 34.822 C 295.686 35.32 296.018 35.768 296.399 35.848 C 296.773 35.959 297.289 35.707 297.731 35.363 C 299.512 33.832 300.71 31.367 301.735 28.902 C 302.742 26.388 303.498 23.665 303.995 20.832 C 304.198 19.651 304.351 18.471 304.462 17.303 C 304.473 17.176 304.534 17.059 304.633 16.978 C 304.731 16.897 304.857 16.859 304.984 16.873 C 305.095 16.885 305.193 16.935 305.273 17.002 C 307.207 18.852 309.166 20.604 311.094 22.215 C 313.035 23.801 314.951 25.325 316.935 26.351 C 317.862 26.837 319.17 27.249 319.244 26.462 C 319.496 25.571 318.998 24.673 318.378 23.936 C 317.082 22.461 315.467 21.409 314.024 20.5 C 311.082 18.705 308.552 17.525 306.82 16.695 C 305.082 15.877 304.112 15.447 304.136 15.386 Z M 317.027 30.23 C 317.131 30.476 314.214 31.945 310.511 33.519 C 306.808 35.092 303.725 36.162 303.621 35.922 C 303.516 35.676 306.433 34.207 310.136 32.634 C 313.84 31.06 316.922 29.99 317.027 30.23 Z M 319.207 35.406 C 319.311 35.652 316.394 37.121 312.691 38.694 C 308.988 40.268 305.905 41.337 305.801 41.098 C 305.696 40.852 308.613 39.383 312.317 37.809 C 316.02 36.236 319.103 35.166 319.207 35.406 Z" fill="rgb(32,32,32)"></path><path d="M 249.253 97.077 L 251.931 93.272 L 252.766 87.193 L 247.042 85.158 L 199.049 125.346 L 198.668 135.279 C 198.668 135.279 200.523 138.002 209.845 129.323 C 219.167 120.638 249.259 97.083 249.259 97.083 Z M 327.4 64.277 L 331.103 61.468 L 333.744 55.93 L 328.911 52.248 L 270.962 75.889 L 270.637 83.701 C 270.637 83.701 271.576 86.861 283.097 81.433 C 294.618 76.005 327.394 64.271 327.394 64.271 Z" fill="rgb(108,28,27)"></path><path d="M 10.509 406.36 C 8.839 399.679 6.038 394.681 2.802 390.938 C 1.396 397.693 0.505 404.621 0.223 411.726 C -0.17 421.764 -0.029 431.126 0.536 439.854 C 8.605 433.21 14.507 422.397 10.503 406.36 Z" fill="rgb(205,7,12)"></path><path d="M 340.631 237.808 C 347.577 223.904 352.717 208.451 355.29 191.283 C 357.998 173.181 357.059 155.22 353.933 137.996 C 343.892 147.899 313.125 184.392 340.637 237.808 Z" fill="rgb(255,248,229)"></path><path d="M 180.303 448.134 C 175.464 467.509 185.087 479.262 195.528 485.249 C 201.11 471.59 205.065 456.414 205.218 440.629 C 205.274 434.752 204.887 428.679 204.205 422.594 C 196.78 424.647 184.676 430.64 180.303 448.134 Z" fill="rgb(205,7,12)"></path><path d="M 353.93 137.929 C 347.905 104.711 333.744 74.284 321.867 51.019 C 303.523 54.756 286.647 64.585 275.998 71.918 C 285.849 100.402 294.311 135.919 285.849 159.553 C 285.849 159.553 275.433 117.884 236.314 82.564 C 217.626 95.429 205.608 112.161 199.067 123.275 C 212.025 141.832 223.595 162.012 221.998 175.461 C 218.823 202.206 178.494 219.294 157.031 231.539 C 157.031 231.539 23.515 292.072 2.874 391.067 C 6.11 394.817 8.911 399.808 10.581 406.489 C 14.585 422.526 8.684 433.339 0.614 439.983 C 6.27 526.568 54.724 550.798 54.724 550.798 L 74.702 493.221 C 74.702 493.221 35.435 431.851 71.6 369.787 C 107.772 307.728 134.511 354.168 137.391 396.335 C 140.148 436.676 128.093 476.668 110.523 497.358 L 157.024 544.59 C 157.024 544.59 181.473 519.874 195.561 485.433 C 185.127 479.446 175.497 467.693 180.336 448.319 C 184.703 430.825 196.813 424.832 204.238 422.778 C 200.185 386.709 185.299 350.135 185.299 350.135 C 185.299 350.135 297.615 323.852 340.628 237.728 C 313.122 184.312 343.883 147.819 353.924 137.916 Z" fill="rgb(230,52,57)"></path><path d="M 264.631 42.727 C 264.631 42.727 264.748 42.893 264.926 43.243 C 265.116 43.63 265.368 44.146 265.687 44.798 C 266.338 46.175 267.278 48.222 268.426 50.877 C 270.717 56.194 273.886 63.964 277.251 73.762 C 280.592 83.566 284.184 95.405 286.764 108.885 C 288.041 115.622 289.048 122.77 289.46 130.233 C 289.834 137.683 289.613 145.508 288.004 153.296 C 284.866 168.866 278.786 182.929 271.687 194.658 C 264.582 206.416 256.549 215.913 249.266 223.271 C 241.964 230.635 235.399 235.903 230.731 239.327 C 228.398 241.042 226.525 242.289 225.241 243.107 C 224.615 243.488 224.13 243.789 223.761 244.01 C 223.417 244.201 223.239 244.293 223.233 244.281 C 223.227 244.269 223.386 244.146 223.706 243.931 C 224.056 243.685 224.529 243.365 225.131 242.947 C 226.377 242.074 228.213 240.783 230.504 239.025 C 235.092 235.516 241.564 230.186 248.774 222.792 C 255.966 215.403 263.906 205.906 270.926 194.197 C 277.939 182.518 283.945 168.552 287.059 153.105 C 288.643 145.415 288.87 137.683 288.514 130.282 C 288.115 122.869 287.132 115.757 285.886 109.045 C 283.361 95.614 279.849 83.781 276.6 73.977 C 273.327 64.167 270.256 56.373 268.076 51.019 C 266.971 48.382 266.111 46.316 265.503 44.872 C 265.22 44.202 264.993 43.673 264.827 43.274 C 264.68 42.911 264.606 42.727 264.625 42.72 Z" fill="rgb(32,32,32)"></path><path d="M 208.895 42.848 C 208.705 42.271 208.447 41.81 208.079 41.564 C 205.487 39.83 164.587 69.636 166.822 78.568 C 166.877 78.783 166.969 79.041 167.086 79.317 C 169.653 75.316 180.413 60.576 208.895 42.848 Z" fill="rgb(108,28,27)"></path><path d="M 236.295 82.386 C 236.074 82.189 235.865 81.986 235.644 81.783 C 205 54.406 208.598 52.482 208.598 52.482 C 208.598 52.482 209.851 45.782 208.85 42.72 C 180.367 60.448 169.608 75.188 167.041 79.19 C 169.473 84.931 185.071 103.07 199.055 123.096 C 205.595 111.983 217.614 95.251 236.301 82.386 Z" fill="rgb(205,7,12)"></path><path d="M 210.097 56.267 C 210.103 56.206 211.165 56.255 213.081 56.501 C 214.991 56.753 217.773 57.159 221.145 58.075 C 222.821 58.56 224.682 59.12 226.481 60.287 C 226.924 60.589 227.36 60.951 227.728 61.418 C 228.109 61.898 228.324 62.5 228.342 63.158 C 228.367 63.49 228.219 63.914 227.919 64.209 C 227.599 64.455 227.243 64.572 226.924 64.603 C 226.273 64.682 225.677 64.59 225.087 64.473 C 222.741 63.969 220.494 62.992 218.172 61.953 C 215.857 60.89 213.511 59.697 211.135 58.388 L 211.841 57.89 C 212.037 59.077 212.191 60.281 212.295 61.505 C 212.541 64.437 212.486 67.326 212.129 70.086 C 211.718 72.827 211.221 75.525 209.661 77.775 C 209.243 78.292 208.678 78.894 207.8 78.912 C 206.916 78.894 206.357 78.292 205.994 77.781 C 205.214 76.62 205.184 75.353 205.116 74.21 C 205.116 71.899 205.577 69.827 206.007 67.959 C 206.909 64.228 207.996 61.32 208.752 59.322 C 209.139 58.327 209.464 57.558 209.691 57.048 C 209.913 56.55 210.078 56.255 210.097 56.286 C 210.158 56.31 209.765 57.423 209.102 59.445 C 208.457 61.474 207.474 64.4 206.664 68.106 C 206.277 69.95 205.872 72.009 205.908 74.192 C 205.976 75.255 206.074 76.423 206.67 77.271 C 206.971 77.708 207.407 78.058 207.794 78.033 C 208.187 78.046 208.623 77.671 208.961 77.228 C 210.293 75.292 210.834 72.606 211.196 69.963 C 211.534 67.276 211.577 64.449 211.337 61.584 C 211.233 60.392 211.085 59.212 210.895 58.05 C 210.852 57.786 211.03 57.54 211.288 57.497 C 211.399 57.478 211.509 57.497 211.601 57.552 C 213.941 58.855 216.275 60.054 218.553 61.117 C 220.832 62.156 223.073 63.146 225.253 63.637 C 226.273 63.877 227.642 63.939 227.519 63.158 C 227.538 62.23 226.832 61.492 226.039 60.933 C 224.418 59.833 222.588 59.23 220.961 58.714 C 217.663 57.724 214.911 57.226 213.026 56.864 C 211.135 56.513 210.091 56.347 210.097 56.28 Z M 226.334 67.369 C 226.494 67.578 224.05 69.741 220.862 72.2 C 217.681 74.659 214.967 76.484 214.807 76.269 C 214.647 76.054 217.098 73.897 220.279 71.438 C 223.46 68.979 226.174 67.153 226.334 67.369 Z M 229.755 71.819 C 229.914 72.028 227.47 74.192 224.283 76.65 C 221.102 79.109 218.387 80.935 218.228 80.72 C 218.068 80.511 220.512 78.347 223.7 75.888 C 226.881 73.429 229.595 71.604 229.755 71.819 Z" fill="rgb(32,32,32)"></path><path d="M 250.132 96.515 C 253.08 91.53 253.547 88.401 253.19 87.104 C 251.33 80.294 238.961 77.614 236.615 78.554 C 225.911 82.826 200.352 105.655 194.696 115.263 C 189.046 124.864 198.601 135.203 198.601 135.203 C 198.601 135.203 197.091 126.131 232.691 98.058 C 255.948 79.722 253.792 87.922 249.5 95.814 L 250.126 96.521 Z M 145.541 563.17 C 149.963 563.545 161.183 558.455 161.373 545.817 C 161.564 533.179 133.29 492.241 110.297 493.372 C 104.985 494.356 97.106 506.391 98.801 512.803 C 100.496 519.214 129.9 561.848 145.541 563.17 Z" fill="rgb(255,248,229)"></path><path d="M 192.281 351.071 C 192.25 351.071 192.164 350.58 192.042 349.633 C 191.919 348.625 191.753 347.242 191.538 345.49 C 191.434 344.587 191.317 343.585 191.194 342.497 C 191.01 341.409 190.807 340.228 190.592 338.962 C 190.377 337.69 190.15 336.338 189.911 334.905 C 189.585 333.485 189.241 331.986 188.885 330.412 C 188.252 327.24 187.129 323.878 186.054 320.239 C 185.391 318.456 184.709 316.619 184.009 314.725 C 183.278 312.838 182.351 310.976 181.497 309.021 C 180.625 307.079 179.495 305.198 178.47 303.218 C 177.37 301.282 176.099 299.383 174.871 297.416 C 172.169 293.654 169.276 289.806 165.776 286.345 C 164.124 284.526 162.238 282.977 160.494 281.342 C 158.615 279.867 156.846 278.287 154.918 277.002 C 151.19 274.242 147.285 272.036 143.514 270.056 C 139.719 268.108 135.96 266.583 132.404 265.262 C 128.818 264.032 125.44 262.969 122.296 262.231 C 116.032 260.658 110.824 260 107.238 259.613 C 105.438 259.447 104.038 259.336 103.086 259.287 C 102.134 259.226 101.637 259.207 101.637 259.17 C 101.637 259.14 102.141 259.09 103.092 259.09 C 104.05 259.078 105.457 259.127 107.268 259.238 C 110.886 259.508 116.13 260.068 122.456 261.568 C 125.631 262.268 129.039 263.301 132.668 264.512 C 136.261 265.809 140.069 267.321 143.913 269.263 C 147.733 271.237 151.688 273.449 155.471 276.234 C 157.424 277.531 159.217 279.117 161.121 280.61 C 162.889 282.258 164.793 283.825 166.47 285.669 C 170.013 289.173 172.936 293.07 175.657 296.881 C 176.891 298.873 178.169 300.79 179.274 302.757 C 180.3 304.761 181.43 306.667 182.302 308.634 C 183.149 310.613 184.076 312.5 184.795 314.406 C 185.489 316.323 186.164 318.18 186.815 319.981 C 187.866 323.657 188.959 327.056 189.554 330.252 C 189.892 331.838 190.212 333.35 190.519 334.789 C 190.734 336.233 190.942 337.598 191.133 338.876 C 191.323 340.149 191.495 341.335 191.661 342.435 C 191.759 343.529 191.845 344.537 191.925 345.447 C 192.06 347.205 192.171 348.594 192.25 349.615 C 192.312 350.567 192.33 351.065 192.3 351.071 Z" fill="rgb(32,32,32)"></path><path d="M 205.319 346.705 C 205.288 346.705 205.153 346.208 204.926 345.242 C 204.699 344.216 204.379 342.808 203.98 341.026 C 203.771 340.11 203.575 339.089 203.305 337.977 C 202.998 336.87 202.672 335.678 202.316 334.399 C 201.96 333.115 201.585 331.744 201.186 330.287 C 200.701 328.855 200.185 327.349 199.644 325.763 C 197.434 319.463 194.375 312.037 189.683 304.538 C 185.09 296.996 178.789 289.448 170.983 282.901 C 170.038 282.047 169.031 281.279 168.017 280.535 C 167.004 279.785 166.027 279.01 165.008 278.304 C 162.932 276.945 160.936 275.531 158.824 274.376 C 154.703 271.905 150.484 269.956 146.4 268.278 C 142.316 266.582 138.294 265.364 134.517 264.283 C 130.709 263.305 127.135 262.488 123.831 261.959 C 117.236 260.828 111.807 260.521 108.073 260.386 C 106.2 260.343 104.744 260.33 103.762 260.343 C 102.773 260.343 102.257 260.361 102.251 260.33 C 102.251 260.3 102.761 260.22 103.75 260.152 C 104.738 260.072 106.194 260.023 108.073 260.011 C 111.825 260.035 117.285 260.238 123.936 261.289 C 127.264 261.781 130.875 262.555 134.713 263.514 C 138.527 264.572 142.593 265.77 146.72 267.461 C 150.846 269.126 155.115 271.081 159.284 273.564 C 161.415 274.726 163.442 276.152 165.542 277.517 C 166.574 278.23 167.563 279.017 168.582 279.773 C 169.608 280.523 170.621 281.303 171.579 282.164 C 179.471 288.784 185.821 296.437 190.42 304.071 C 195.118 311.669 198.128 319.174 200.271 325.542 C 200.793 327.14 201.284 328.664 201.757 330.109 C 202.132 331.572 202.488 332.961 202.826 334.258 C 203.151 335.549 203.458 336.754 203.741 337.866 C 203.986 338.985 204.158 340.018 204.336 340.94 C 204.662 342.741 204.92 344.167 205.104 345.199 C 205.27 346.177 205.337 346.687 205.307 346.693 Z" fill="rgb(32,32,32)"></path><path d="M 132.975 263.528 C 133.651 262.999 134.615 262.249 136.47 260.805 C 138.65 259.145 141.935 256.625 145.749 253.361 C 149.563 250.085 153.972 245.973 158.111 240.791 C 160.119 238.172 162.121 235.277 163.423 231.958 C 164.093 230.311 164.523 228.534 164.523 226.752 C 164.541 225.854 164.338 224.987 164.044 224.164 C 163.663 223.383 163.153 222.664 162.429 222.172 C 160.967 221.213 159.032 221.127 157.344 221.65 C 155.63 222.148 154.076 223.113 152.75 224.262 C 151.393 225.387 150.361 226.831 149.299 228.208 C 148.236 229.579 147.315 231.011 146.406 232.394 C 142.881 238.025 140.345 243.483 138.435 248.142 C 136.525 252.808 135.211 256.674 134.333 259.354 C 133.921 260.639 133.596 261.672 133.344 262.452 C 133.129 263.19 132.981 263.485 132.963 263.522 C 132.938 263.559 132.988 263.098 133.16 262.397 C 133.325 261.672 133.596 260.602 133.976 259.244 C 134.744 256.521 135.966 252.605 137.802 247.884 C 139.639 243.17 142.132 237.644 145.651 231.915 C 146.56 230.501 147.487 229.05 148.562 227.649 C 149.624 226.26 150.68 224.766 152.124 223.549 C 153.524 222.32 155.182 221.275 157.073 220.721 C 158.928 220.15 161.17 220.193 162.963 221.367 C 163.847 221.969 164.48 222.842 164.922 223.776 C 165.278 224.735 165.493 225.743 165.475 226.727 C 165.475 228.7 164.996 230.581 164.295 232.296 C 162.92 235.75 160.863 238.683 158.799 241.332 C 154.555 246.563 150.072 250.644 146.179 253.871 C 142.261 257.105 139 259.49 136.611 261.143 C 135.462 261.893 134.547 262.495 133.853 262.95 C 133.246 263.35 132.951 263.546 132.969 263.522 Z" fill="rgb(32,32,32)"></path><path d="M 132.856 263.398 C 132.856 263.398 132.623 263.318 132.089 263.127 C 131.444 262.9 130.633 262.611 129.638 262.26 C 128.515 261.861 127.237 261.332 125.776 260.724 C 124.296 260.127 122.631 259.402 120.801 258.578 C 117.147 256.919 112.824 254.86 108.249 252.124 C 105.976 250.735 103.618 249.204 101.426 247.25 C 100.314 246.297 99.276 245.178 98.453 243.838 C 98.017 243.187 97.747 242.375 97.649 241.515 C 97.6 240.617 98.036 239.683 98.724 239.13 C 99.399 238.552 100.204 238.263 100.984 238.097 C 101.77 237.907 102.556 237.882 103.33 237.882 C 104.877 237.913 106.376 238.208 107.782 238.681 C 109.188 239.154 110.509 239.831 111.669 240.636 C 112.83 241.423 113.923 242.252 114.955 243.101 C 119.063 246.512 122.343 250.028 124.977 253.065 C 127.606 256.107 129.595 258.683 130.922 260.49 C 131.585 261.394 132.083 262.113 132.408 262.605 C 132.727 263.066 132.893 263.422 132.863 263.391 C 132.832 263.361 132.635 263.207 132.255 262.721 L 130.627 260.717 C 129.209 258.984 127.151 256.482 124.468 253.513 C 121.784 250.557 118.474 247.115 114.396 243.789 C 112.333 242.16 110.14 240.433 107.481 239.572 C 106.154 239.13 104.742 238.859 103.311 238.835 C 101.923 238.835 100.357 239.007 99.35 239.861 C 98.853 240.273 98.595 240.845 98.613 241.472 C 98.699 242.105 98.883 242.763 99.282 243.353 C 100.013 244.545 100.99 245.621 102.058 246.543 C 104.171 248.436 106.486 249.967 108.715 251.362 C 113.211 254.116 117.491 256.224 121.09 257.958 C 124.67 259.673 127.735 261 129.645 261.879 L 132.863 263.391 Z" fill="rgb(32,32,32)"></path><path d="M 112.402 283.678 C 112.353 283.568 113.784 283.709 115.289 282.031 C 116.812 280.439 118.28 277.544 120.159 274.015 C 121.117 272.257 122.185 270.327 123.622 268.416 C 125.041 266.529 126.92 264.574 129.549 263.609 C 132.122 262.631 135.432 262.988 137.796 264.943 C 140.13 266.903 141.518 269.749 142.537 272.651 C 144.509 278.539 144.896 284.459 144.914 289.757 C 144.914 292.407 144.681 294.958 144.546 297.269 C 144.38 299.586 144.515 301.762 144.828 303.704 C 145.436 307.614 147.008 310.509 148.408 312.193 C 149.815 313.908 150.92 314.511 150.877 314.572 C 150.865 314.603 150.57 314.486 150.066 314.16 C 149.569 313.828 148.881 313.275 148.12 312.439 C 146.591 310.786 144.865 307.829 144.152 303.821 C 143.784 301.83 143.606 299.605 143.741 297.232 C 143.845 294.853 144.048 292.394 144.017 289.757 C 143.956 284.526 143.532 278.675 141.616 272.964 C 140.634 270.155 139.289 267.451 137.188 265.674 C 135.082 263.935 132.196 263.596 129.831 264.451 C 127.448 265.293 125.643 267.1 124.237 268.907 C 122.824 270.739 121.725 272.626 120.736 274.353 C 118.783 277.82 117.211 280.715 115.534 282.301 C 114.718 283.1 113.889 283.524 113.293 283.641 C 112.703 283.776 112.384 283.684 112.384 283.684 Z" fill="rgb(32,32,32)"></path><path d="M 83.5 343.454 L 67.342 348.789 C 68.595 352.397 62.792 370.315 71.733 379.892 C 84.384 393.446 104.098 388.11 110.165 383.642 C 118.48 377.519 128.675 363.388 123.025 339.526 C 121.385 332.605 119.727 326.839 118.192 322.094 C 110.22 355.194 83.5 343.448 83.5 343.448 Z" fill="rgb(255,248,229)"></path><path d="M 56.282 324.03 C 58.947 340.516 67.416 348.832 67.416 348.832 L 83.573 343.497 C 83.573 343.497 110.294 355.243 118.265 322.143 C 114.5 310.525 111.491 305.19 111.491 305.19 C 111.491 305.19 53.61 307.544 56.282 324.03 Z" fill="rgb(255,178,131)"></path><path d="M 55.517 299.714 C 55.517 299.714 47.552 305.357 47.595 310.231 C 47.637 315.106 49.56 325.881 67.332 326.902 C 85.111 327.922 110.892 311.565 113.772 305.08 C 116.652 298.589 111.973 284.968 103.504 286.572 C 95.035 288.177 55.511 299.714 55.511 299.714 Z" fill="rgb(255,248,229)"></path><path d="M 53.232 311.291 C 53.668 308.882 54.276 304.284 53.65 299.729 C 53.109 295.813 51.654 291.935 48.387 289.507 C 41.429 284.35 33.028 287.079 29.238 293.828 C 25.953 299.68 27.12 307.326 27.12 307.326 L 23.257 312.324 C 20.893 303.706 19.984 294.541 21.967 285.64 C 29.238 253.038 64.679 245.907 82.722 259.406 C 96.528 269.732 104.204 285.849 107.109 293.035 C 107.109 293.035 104.106 305.009 77.981 310.99 C 60.632 315.145 53.232 311.285 53.232 311.285 Z" fill="rgb(205,7,12)"></path><path d="M 20.048 321.641 C 17.103 317.25 18.273 311.3 22.66 308.353 C 27.048 305.405 32.992 306.575 35.937 310.967 C 38.882 315.359 37.712 321.308 33.325 324.256 C 28.937 327.203 22.993 326.033 20.048 321.641 Z" fill="rgb(255,248,229)"></path><path d="M 115.896 314.742 C 115.896 314.742 116.338 306.136 123.228 306.112 C 130.395 306.081 135.32 329.304 119.562 326.292 C 103.804 323.28 115.896 314.742 115.896 314.742 Z" fill="rgb(255,178,131)"></path><path d="M 119.223 319.488 C 119.094 319.451 119.118 318.953 119.272 318.166 C 119.456 317.386 119.738 316.298 120.494 315.216 C 120.881 314.706 121.403 314.146 122.176 314.103 C 122.938 314.085 123.399 314.54 123.663 314.859 C 124.209 315.542 124.277 316.07 124.172 316.125 C 124.05 316.193 123.749 315.787 123.19 315.345 C 122.92 315.13 122.557 314.927 122.244 314.988 C 121.931 315.013 121.581 315.363 121.268 315.787 C 120.064 317.631 119.542 319.611 119.223 319.494 Z M 120.967 323.028 C 121.059 322.905 121.44 323.176 121.925 323.09 C 122.379 323.028 123.024 322.42 123.171 321.67 C 123.454 319.746 121.225 320.92 121.249 320.607 C 121.188 320.508 121.452 320.133 122.158 319.869 C 122.484 319.758 123.104 319.629 123.626 320.115 C 123.871 320.342 123.988 320.637 124.074 320.92 C 124.123 321.178 124.191 321.504 124.117 321.836 C 123.859 323.071 122.815 323.84 121.931 323.766 C 121.053 323.631 120.893 323.071 120.967 323.028 Z" fill="rgb(32,32,32)"></path><path d="M 83.527 343.466 C 83.527 343.466 85.093 331.062 94.661 329.334 C 104.229 327.607 109.246 344.56 114.736 328.548 C 114.736 328.548 109.406 356.534 83.52 343.46 Z" fill="rgb(108,28,27)"></path><path d="M 83.602 343.454 C 83.602 343.454 74.906 332.82 69.827 336.096 C 64.749 339.373 66.892 351.347 57.981 344.118 C 57.981 344.118 66.689 365.159 83.608 343.454 Z M 56.962 331.357 C 56.962 331.357 57.754 321.645 71.86 321.08 C 71.86 321.08 68.323 315.548 66.738 313.513 C 65.16 311.478 51.207 318.031 56.962 331.357 Z M 83.031 317.121 C 83.031 317.121 91.948 311.024 103.567 318.818 C 103.567 318.818 95.749 299.615 80.206 308.423 C 80.206 308.423 82.073 314.81 83.025 317.121 Z" fill="rgb(108,28,27)"></path><path d="M 76.151 327.933 C 76.151 327.933 83.49 352.219 83.729 343.509" fill="rgb(255,178,131)"></path><path d="M 83.762 343.51 C 83.824 343.51 83.891 343.805 83.891 344.358 C 83.873 344.641 83.91 344.961 83.658 345.428 C 83.578 345.545 83.406 345.692 83.179 345.68 C 82.983 345.668 82.829 345.582 82.731 345.502 C 82.51 345.336 82.356 345.145 82.196 344.942 C 81.042 343.301 80.059 340.842 79.046 338.101 C 77.069 332.606 75.939 328.008 76.184 327.934 C 76.448 327.854 77.984 332.317 79.949 337.769 C 80.95 340.48 81.846 342.975 82.755 344.555 C 82.989 344.948 83.29 345.207 83.228 345.102 C 83.382 344.918 83.462 344.555 83.517 344.315 C 83.627 343.805 83.689 343.51 83.756 343.51 Z" fill="rgb(32,32,32)"></path><path d="M 88.24 327.601 C 88.873 329.635 88.369 331.608 87.117 331.996 C 85.864 332.389 84.329 331.055 83.696 329.014 C 83.063 326.98 83.567 325.007 84.82 324.619 C 86.073 324.232 87.608 325.56 88.24 327.601 Z M 73.87 330.858 C 74.417 332.623 73.981 334.325 72.9 334.663 C 71.813 335.001 70.486 333.846 69.94 332.082 C 69.393 330.317 69.823 328.615 70.91 328.277 C 71.997 327.939 73.323 329.094 73.87 330.858 Z M 88.056 349.09 C 88.056 350.153 87.368 351.02 86.515 351.02 C 85.661 351.02 84.973 350.153 84.973 349.09 C 84.973 348.026 85.661 347.16 86.515 347.16 C 87.368 347.16 88.056 348.026 88.056 349.09 Z" fill="rgb(108,28,27)"></path><path d="M 303.627 12.921 C 303.627 12.921 307.158 5.655 306.759 1.537 C 276.324 11.452 262.229 22.208 257.624 26.327 C 258.815 29.456 267.959 48.277 276.139 71.942 C 286.788 64.603 303.664 54.78 322.008 51.043 C 313.214 33.814 305.672 20.5 303.627 12.927 Z" fill="rgb(205,7,12)"></path><path d="M 328.538 63.949 C 332.861 60.095 334.255 57.261 334.317 55.921 C 334.618 48.865 323.649 42.546 321.138 42.724 C 309.641 43.529 281.404 55.952 273.095 63.371 C 264.786 70.797 270.749 83.557 270.749 83.557 C 270.749 83.557 269.011 75.991 311.465 60.101 C 339.199 49.725 334.648 56.88 328.157 63.089 L 328.538 63.955 Z" fill="rgb(255,248,229)"></path><path d="M 166.445 222.521 C 166.445 222.521 189.18 221.999 226.936 249.862 C 263.525 276.865 267.615 314.932 266.743 324.466 C 266.369 328.517 252.944 335.149 248.897 328.148 C 248.897 328.148 251.587 287.284 212.995 256.378 C 184.107 233.247 154.433 231.385 154.433 231.385 C 154.433 231.385 150.527 225.963 166.457 222.515 Z" fill="rgb(250, 246, 212)"></path></g><g transform="translate(34.391 439.498)"><path d="M 68.567 139.146 C 68.567 134.253 72.423 130.276 77.262 130.061 C 74.02 114.663 69.838 94.833 66.491 79.146 C 65.023 82.208 61.909 84.322 58.298 84.322 C 53.275 84.322 49.203 80.247 49.203 75.219 C 49.203 70.191 53.275 66.115 58.298 66.115 C 60.534 66.115 62.579 66.927 64.163 68.267 C 62.825 62.052 61.774 57.264 61.209 54.817 C 60.036 49.777 57.365 47.398 54.024 46.279 C 54.129 46.765 54.19 47.269 54.19 47.792 C 54.19 51.682 51.04 54.836 47.152 54.836 C 43.265 54.836 40.114 51.682 40.114 47.792 C 40.114 46.9 40.286 46.052 40.587 45.271 C 40.035 45.253 39.488 45.228 38.948 45.191 C 12.559 43.267 10.084 46.015 9.808 52.623 C 9.795 52.869 9.777 53.201 9.758 53.588 C 11.374 52.107 13.523 51.191 15.893 51.191 C 20.917 51.191 24.989 55.266 24.989 60.294 C 24.989 65.322 20.917 69.398 15.893 69.398 C 13.062 69.398 10.532 68.101 8.862 66.072 C 7.406 85.164 4.643 119.156 3.071 138.617 C 4.729 136.877 7.056 135.789 9.648 135.789 C 14.671 135.789 18.743 139.865 18.743 144.893 C 18.743 149.921 14.671 153.996 9.648 153.996 C 7.234 153.996 5.048 153.05 3.421 151.513 C 8.327 166.247 33.549 161.858 51.04 161.858 C 71.109 161.858 84.411 163.874 81.592 150.579 C 81.408 149.718 81.199 148.722 80.966 147.628 C 79.94 148.028 78.829 148.255 77.662 148.255 C 72.638 148.255 68.567 144.18 68.567 139.152 Z M 17.441 113.679 C 12.694 113.679 8.849 109.831 8.849 105.08 C 8.849 100.328 12.694 96.481 17.441 96.481 C 22.188 96.481 26.033 100.335 26.033 105.08 C 26.033 109.825 22.188 113.679 17.441 113.679 Z M 23.601 79.343 C 23.601 75.452 26.751 72.299 30.638 72.299 C 34.526 72.299 37.676 75.452 37.676 79.343 C 37.676 83.234 34.526 86.387 30.638 86.387 C 26.751 86.387 23.601 83.234 23.601 79.343 Z M 42.27 161.034 C 38.383 161.034 35.232 157.881 35.232 153.99 C 35.232 150.099 38.383 146.946 42.27 146.946 C 46.157 146.946 49.308 150.099 49.308 153.99 C 49.308 157.881 46.157 161.034 42.27 161.034 Z M 49.203 134.136 C 44.18 134.136 40.108 130.061 40.108 125.033 C 40.108 120.004 44.18 115.929 49.203 115.929 C 54.227 115.929 58.298 120.004 58.298 125.033 C 58.298 130.061 54.227 134.136 49.203 134.136 Z" fill="rgb(255,248,229)"></path><path d="M 49.087 75.047 C 49.087 80.075 53.159 84.15 58.183 84.15 C 61.8 84.15 64.913 82.035 66.375 78.974 C 65.534 75.04 64.754 71.371 64.047 68.095 C 62.463 66.754 60.418 65.943 58.183 65.943 C 53.159 65.943 49.087 70.018 49.087 75.047 Z M 15.771 69.226 C 20.795 69.226 24.867 65.15 24.867 60.122 C 24.867 55.094 20.795 51.019 15.771 51.019 C 13.407 51.019 11.258 51.928 9.636 53.416 C 9.507 55.623 9.188 60.061 8.74 65.9 C 10.41 67.929 12.934 69.226 15.771 69.226 Z M 49.087 115.757 C 44.064 115.757 39.992 119.832 39.992 124.86 C 39.992 129.889 44.064 133.964 49.087 133.964 C 54.111 133.964 58.183 129.889 58.183 124.86 C 58.183 119.832 54.111 115.757 49.087 115.757 Z M 68.451 138.974 C 68.451 144.002 72.522 148.077 77.546 148.077 C 78.713 148.077 79.824 147.85 80.85 147.45 C 79.929 143.08 78.633 136.957 77.147 129.889 C 72.314 130.098 68.451 134.081 68.451 138.974 Z M 18.627 144.715 C 18.627 139.687 14.555 135.611 9.532 135.611 C 6.94 135.611 4.607 136.699 2.955 138.439 C 2.807 140.27 2.672 141.973 2.543 143.516 C 2.298 146.589 2.58 149.165 3.305 151.335 C 4.932 152.871 7.118 153.818 9.532 153.818 C 14.555 153.818 18.627 149.743 18.627 144.715 Z M 42.154 146.774 C 38.267 146.774 35.116 149.927 35.116 153.818 C 35.116 157.709 38.267 160.862 42.154 160.862 C 46.041 160.862 49.192 157.709 49.192 153.818 C 49.192 149.927 46.041 146.774 42.154 146.774 Z" fill="rgb(253,63,49)"></path><path d="M 23.429 80.403 C 22.804 76.563 25.408 72.943 29.244 72.318 C 33.081 71.692 36.697 74.298 37.322 78.138 C 37.947 81.978 35.343 85.598 31.507 86.223 C 27.67 86.849 24.054 84.243 23.429 80.403 Z" fill="rgb(253,63,49)"></path><path d="M 46.894 54.75 C 50.782 54.75 53.932 51.596 53.932 47.705 C 53.932 47.189 53.871 46.685 53.766 46.193 C 49.762 44.853 44.806 45.314 40.323 45.179 C 40.022 45.96 39.85 46.808 39.85 47.699 C 39.85 51.59 43.001 54.744 46.888 54.744 Z M 17.189 96.394 C 12.442 96.394 8.598 100.249 8.598 104.994 C 8.598 109.739 12.442 113.593 17.189 113.593 C 21.936 113.593 25.781 109.745 25.781 104.994 C 25.781 100.242 21.936 96.394 17.189 96.394 Z" fill="rgb(253,63,49)"></path><path d="M 34.486 47.091 C 34.584 47.005 35.88 45.782 37.821 44.153 C 39.97 42.297 43.163 39.703 46.701 36.088 C 48.439 34.257 50.33 32.24 52.136 29.898 C 53.966 27.581 55.765 24.981 57.313 22.067 C 58.86 19.166 60.211 15.945 60.85 12.491 C 61.163 10.77 61.335 8.981 61.12 7.254 C 60.93 5.532 60.279 3.854 59.155 2.871 C 58.572 2.428 57.896 2.213 57.172 2.201 C 56.441 2.225 55.673 2.465 54.948 2.859 C 53.481 3.639 52.234 4.905 51.116 6.276 C 50.005 7.69 48.875 9.042 47.947 10.511 C 46.94 11.919 46.093 13.394 45.264 14.833 C 41.966 20.604 39.933 26.315 38.41 31.128 C 35.462 40.827 34.83 47.14 34.498 47.097 C 34.351 47.085 34.32 45.487 34.633 42.635 C 34.946 39.783 35.597 35.67 36.924 30.698 C 38.275 25.749 40.197 19.861 43.495 13.849 C 44.33 12.349 45.178 10.819 46.209 9.337 C 47.149 7.807 48.316 6.375 49.464 4.893 C 50.65 3.43 52.044 1.943 53.929 0.922 C 54.862 0.418 55.949 0.037 57.141 0 C 58.332 -0.012 59.573 0.394 60.537 1.15 C 62.373 2.76 63.055 4.979 63.294 6.983 C 63.534 9.024 63.325 11.003 62.969 12.878 C 62.244 16.646 60.764 20.02 59.094 23.026 C 57.423 26.044 55.507 28.7 53.56 31.029 C 51.644 33.39 49.642 35.394 47.8 37.189 C 44.06 40.729 40.676 43.163 38.349 44.829 C 35.665 46.544 34.406 47.171 34.504 47.079 Z" fill="rgb(255,249,232)"></path><path d="M 34.188 46.974 C 34.274 47.066 33.144 46.402 30.589 44.816 C 29.275 43.974 28.004 43.003 26.395 41.841 C 24.798 40.698 23.06 39.284 21.113 37.753 C 17.281 34.619 12.804 30.74 8.413 25.798 C 6.233 23.321 4.047 20.591 2.254 17.371 C 1.363 15.766 0.559 14.027 0.178 12.029 C 0.061 11.543 0.061 10.996 0 10.486 C 0.037 9.939 0.012 9.398 0.178 8.833 C 0.375 7.708 1.179 6.534 2.266 5.931 C 3.341 5.329 4.544 5.145 5.595 5.255 C 6.669 5.317 7.652 5.606 8.592 5.937 C 10.452 6.65 12.074 7.689 13.511 8.857 C 14.914 9.992 16.201 11.262 17.355 12.65 C 18.485 13.965 19.572 15.262 20.536 16.602 C 24.522 21.882 27.328 27.156 29.373 31.68 C 31.425 36.217 32.671 40.046 33.396 42.726 C 34.121 45.406 34.323 46.937 34.176 46.974 C 33.856 47.066 32.333 41.122 27.973 32.35 C 25.781 27.986 22.894 22.903 18.927 17.838 C 17.963 16.553 16.888 15.305 15.777 14.039 C 14.69 12.748 13.498 11.605 12.172 10.548 C 10.858 9.49 9.39 8.574 7.818 7.984 C 6.289 7.407 4.489 7.167 3.365 7.825 C 2.248 8.402 1.99 10.031 2.315 11.636 C 2.61 13.252 3.316 14.85 4.133 16.344 C 5.767 19.35 7.848 22.024 9.924 24.47 C 14.119 29.357 18.43 33.315 22.096 36.567 C 23.957 38.165 25.615 39.647 27.132 40.876 C 28.581 42.093 29.84 43.144 30.896 44.029 C 32.622 45.584 33.525 46.396 34.17 46.98 Z" fill="rgb(255,249,232)"></path></g><g transform="translate(17.707 439.553)" opacity="0"><path d="M 43.466 58.024 C 43.528 57.858 44.05 55.909 44.805 53.395 C 45.732 50.58 47.268 46.382 48.729 41.182 C 50.222 35.975 51.745 29.681 52.426 22.612 C 52.74 19.09 52.826 15.353 52.285 11.64 C 52.027 9.79 51.603 7.927 50.86 6.28 C 50.173 4.639 48.944 3.194 47.839 3.09 C 46.77 2.875 45.395 4.03 44.504 5.561 C 43.583 7.085 42.914 8.855 42.453 10.669 C 41.581 14.375 40.918 18.051 40.691 21.598 C 40.083 28.685 40.476 35.158 41.016 40.548 C 42.152 51.355 43.909 57.907 43.485 58.03 C 43.122 58.159 40.611 51.766 38.91 40.831 C 38.093 35.373 37.454 28.759 37.933 21.389 C 38.099 17.701 38.719 13.859 39.61 9.9 C 40.101 7.896 40.82 5.868 41.98 3.926 C 42.586 2.892 43.37 1.975 44.295 1.215 C 45.272 0.416 46.74 -0.162 48.22 0.041 C 49.687 0.244 50.934 1.086 51.714 2.026 C 52.555 2.954 53.12 3.987 53.587 5.014 C 54.496 7.079 54.938 9.175 55.208 11.216 C 55.761 15.31 55.589 19.237 55.19 22.913 C 54.324 30.259 52.543 36.639 50.768 41.852 C 49.006 47.095 47.206 51.096 45.868 53.948 C 44.228 57.046 43.423 58.208 43.485 58.036 Z" fill="rgb(255,89,77)"></path><path d="M 43.675 58.143 C 43.564 58.002 42.342 56.649 40.844 54.873 C 39.18 52.802 36.791 49.581 33.536 46.009 C 30.306 42.42 26.197 38.338 20.989 34.871 C 18.392 33.156 15.481 31.632 12.336 30.728 C 10.77 30.31 9.143 30.021 7.565 30.108 C 6.011 30.181 4.482 30.679 3.665 31.607 C 2.854 32.511 2.83 33.851 3.401 35.24 C 3.96 36.623 5.041 37.902 6.22 39.008 C 8.713 41.221 11.403 43.249 14.074 44.903 C 19.399 48.302 24.619 50.699 29.053 52.55 C 37.958 56.219 43.773 57.713 43.675 58.149 C 43.607 58.543 37.571 57.799 28.31 54.59 C 23.698 52.968 18.257 50.73 12.637 47.331 C 9.8 45.659 7.012 43.661 4.23 41.239 C 2.848 39.961 1.503 38.467 0.65 36.445 C 0.257 35.425 -0.081 34.3 0.017 33.046 C 0.109 31.822 0.558 30.507 1.417 29.573 C 3.137 27.686 5.434 27.169 7.411 27.059 C 9.438 26.973 11.335 27.335 13.123 27.833 C 16.678 28.909 19.78 30.624 22.506 32.511 C 27.947 36.334 32.019 40.723 35.133 44.589 C 38.277 48.462 40.377 51.83 41.845 54.271 C 43.35 57.104 43.786 58.297 43.675 58.155 Z" fill="rgb(255,89,77)"></path><path d="M 25.947 158.047 C 37.854 152.828 80.806 134.087 115.633 120.09 C 115.086 118.302 114.466 116.378 113.79 114.331 C 77.772 128.837 33.599 148.157 23.951 152.392 C 24.663 154.55 25.339 156.449 25.94 158.041 Z" fill="rgb(253,63,49)"></path><path d="M 28.181 162.767 C 35.231 172.233 117.32 138.825 118.383 132.131 C 118.604 130.735 117.535 126.23 115.613 119.96 C 80.78 133.956 37.835 152.692 25.927 157.917 C 26.842 160.314 27.616 162.004 28.181 162.767 Z M 80.356 45.571 C 69.818 43.838 10.85 69.175 7.718 77.633 C 6.908 79.815 7.571 86.128 9.076 94.389 C 19.448 89.785 58.248 72.66 91.097 59.26 C 86.878 51.386 83.04 46.014 80.363 45.571 Z M 93.855 64.639 C 61.006 77.99 21.401 95.459 10.248 100.401 C 11.618 107.058 13.362 114.496 15.241 121.866 C 26.504 116.93 68.172 98.735 102.821 84.751 C 99.898 77.633 96.827 70.669 93.861 64.633 Z" fill="rgb(205,7,12)"></path><path d="M 91.234 59.317 C 58.391 72.723 19.584 89.848 9.212 94.446 C 9.562 96.358 9.949 98.368 10.379 100.464 C 21.537 95.515 61.142 78.052 93.985 64.701 C 93.052 62.808 92.13 61.007 91.228 59.317 Z" fill="rgb(253,63,49)"></path><path d="M 16.894 127.737 C 19.351 137 21.918 145.772 24.074 152.275 C 33.721 148.04 77.895 128.721 113.913 114.214 C 111.58 107.17 108.54 98.798 105.199 90.358 C 71.029 104.109 29.398 122.254 16.888 127.737 Z" fill="rgb(205,7,12)"></path><path d="M 102.933 84.826 C 68.284 98.81 26.616 116.999 15.353 121.941 C 15.85 123.902 16.36 125.862 16.876 127.799 C 29.386 122.316 71.011 104.17 105.187 90.42 C 104.45 88.551 103.694 86.689 102.933 84.826 Z" fill="rgb(253,63,49)"></path></g><g transform="translate(22.295 450)" opacity="0"><path d="M 69.334 39.891 C 51.156 68.271 35.619 94.186 27.328 108.237 C 29.889 113.647 32.469 118.785 34.882 123.236 C 41.287 112.251 61.449 78.05 85.443 40.948 C 82.802 39.633 76.839 39.381 69.334 39.897 Z" fill="rgb(230,52,57)"></path><path d="M 62.487 40.587 C 46.47 65.722 32.739 88.545 24.565 102.345 C 25.48 104.355 26.407 106.346 27.335 108.301 C 35.625 94.249 51.156 68.334 69.34 39.954 C 67.172 40.102 64.876 40.317 62.493 40.587 Z" fill="rgb(205,7,12)"></path><path d="M 8.607 58.001 C 8.46 60.485 10.038 66.183 12.624 73.467 C 17.352 65.654 22.775 56.797 28.683 47.331 C 17.34 50.564 8.822 54.424 8.607 58.001 Z" fill="rgb(230,52,57)"></path><path d="M 28.649 47.386 C 23.236 56.061 17.883 64.774 12.589 73.522 C 14.174 77.985 16.139 83.037 18.325 88.311 C 25.449 76.405 35.036 60.632 45.936 43.335 C 39.93 44.485 33.973 45.868 28.649 47.386 Z" fill="rgb(255,248,229)"></path><path d="M 46.034 43.108 C 36.657 57.992 27.453 72.985 18.424 88.084 C 20.358 92.749 22.458 97.581 24.62 102.326 C 32.794 88.527 46.526 65.703 62.542 40.569 C 57.297 41.165 51.641 42.038 46.034 43.114 Z" fill="rgb(230,52,57)"></path><path d="M 86.573 41.884 C 86.327 41.62 85.983 41.393 85.565 41.184 C 61.572 78.292 41.41 112.493 35.005 123.471 C 38.653 130.202 41.92 135.335 44.18 137.437 C 64.968 105.295 82.876 75.329 91.467 60.731 C 90.104 51.185 88.439 43.882 86.573 41.878 Z" fill="rgb(255,248,229)"></path><path d="M 94.003 83.597 C 86.063 96.935 74.186 116.568 60.491 138.156 C 63.101 137.806 65.864 137.345 68.64 136.804 C 78.878 120.533 87.899 105.695 94.74 94.268 C 94.538 90.77 94.292 87.18 94.01 83.597 Z" fill="rgb(205,7,12)"></path><path d="M 68.585 136.724 C 80.738 134.345 93.168 130.356 94.605 126.852 C 95.692 124.203 95.619 110.163 94.685 94.194 C 86.14 108.468 77.44 122.647 68.585 136.73 Z M 91.504 60.552 C 82.912 75.145 64.999 105.117 44.217 137.259 C 44.72 137.732 45.181 138.058 45.58 138.205 C 48.073 139.152 53.772 138.967 60.448 138.07 C 74.143 116.482 86.026 96.849 93.96 83.511 C 93.322 75.446 92.493 67.418 91.51 60.546 Z" fill="rgb(230,52,57)"></path><path d="M 42.888 44.022 C 42.993 44.109 41.992 43.672 39.621 42.381 C 37.466 41.078 34.647 39.246 31.238 36.597 C 27.879 33.948 23.949 30.622 20.338 26.141 C 18.545 23.904 16.819 21.365 15.572 18.384 C 14.989 16.872 14.504 15.255 14.436 13.473 C 14.387 11.752 14.743 9.594 16.469 8.186 C 18.188 6.779 20.504 6.883 22.143 7.504 C 23.863 8.119 25.251 9.145 26.448 10.264 C 28.708 12.575 30.508 14.942 32.068 17.358 C 35.212 22.14 37.343 26.811 38.964 30.77 C 42.151 38.724 43.183 43.949 42.888 44.022 C 42.557 44.121 40.966 39.105 37.435 31.434 C 35.648 27.623 33.394 23.117 30.268 18.568 C 28.745 16.294 26.897 13.983 24.87 11.948 C 23.838 10.996 22.653 10.166 21.388 9.723 C 20.129 9.262 18.796 9.317 17.961 10.018 C 17.083 10.688 16.745 12.047 16.788 13.405 C 16.831 14.782 17.224 16.19 17.728 17.53 C 18.815 20.21 20.387 22.632 22.057 24.795 C 25.41 29.147 29.144 32.54 32.307 35.3 C 35.47 38.035 38.289 40.156 40.033 41.551 L 42.894 44.016 Z" fill="rgb(236,79,83)"></path><path d="M 42.831 44.078 C 42.966 44.084 41.904 44.336 39.239 44.748 C 36.733 45.013 33.38 45.265 29.069 45.215 C 24.794 45.135 19.654 44.871 14.072 43.482 C 11.29 42.781 8.385 41.81 5.591 40.187 C 4.215 39.339 2.852 38.343 1.716 36.96 C 0.635 35.62 -0.384 33.684 0.144 31.52 C 0.666 29.363 2.569 28.041 4.252 27.543 C 5.99 26.99 7.722 26.972 9.349 27.138 C 12.549 27.611 15.411 28.404 18.113 29.387 C 23.505 31.299 28.025 33.721 31.703 35.897 C 39.048 40.304 43.022 43.838 42.831 44.078 C 42.629 44.361 38.33 41.324 30.887 37.354 C 27.159 35.393 22.645 33.174 17.407 31.447 C 14.815 30.555 11.953 29.83 9.11 29.436 C 7.71 29.301 6.266 29.357 4.995 29.768 C 3.712 30.162 2.686 31.016 2.447 32.08 C 2.152 33.143 2.705 34.428 3.552 35.485 C 4.418 36.555 5.585 37.44 6.788 38.202 C 9.269 39.677 11.99 40.654 14.625 41.374 C 19.924 42.812 24.948 43.255 29.136 43.543 C 33.312 43.814 36.831 43.795 39.067 43.845 C 40.983 43.961 42.021 44.029 42.837 44.078 Z" fill="rgb(236,79,83)"></path><path d="M 42.7 44.161 C 42.663 44.29 42.663 43.202 42.878 40.51 C 43.197 38.008 43.725 34.682 44.769 30.496 C 45.832 26.353 47.275 21.405 49.91 16.285 C 51.23 13.734 52.845 11.128 55.068 8.78 C 56.21 7.636 57.494 6.536 59.097 5.749 C 60.651 5.005 62.763 4.458 64.753 5.473 C 66.73 6.475 67.578 8.638 67.676 10.39 C 67.811 12.21 67.437 13.9 66.896 15.449 C 65.699 18.455 64.268 21.061 62.689 23.464 C 59.588 28.277 56.192 32.119 53.226 35.205 C 47.25 41.346 42.896 44.4 42.706 44.161 C 42.479 43.896 46.421 40.411 51.998 34.074 C 54.761 30.896 57.961 27.011 60.847 22.303 C 62.309 19.985 63.672 17.361 64.71 14.681 C 65.164 13.347 65.441 11.933 65.336 10.593 C 65.25 9.253 64.655 8.054 63.678 7.575 C 62.714 7.04 61.332 7.28 60.11 7.87 C 58.87 8.466 57.74 9.394 56.72 10.396 C 54.712 12.474 53.14 14.896 51.832 17.299 C 49.216 22.131 47.625 26.919 46.378 30.933 C 45.156 34.934 44.358 38.37 43.793 40.534 C 43.24 42.372 42.933 43.374 42.7 44.155 Z" fill="rgb(236,79,83)"></path><path d="M 42.693 44.34 C 42.594 44.433 43.135 43.486 44.652 41.255 C 46.168 39.239 48.269 36.614 51.241 33.485 C 54.207 30.406 57.91 26.828 62.725 23.681 C 65.133 22.12 67.822 20.657 70.918 19.716 C 72.477 19.292 74.136 18.966 75.916 19.077 C 77.636 19.2 79.742 19.772 80.965 21.634 C 82.187 23.49 81.855 25.783 81.075 27.357 C 80.295 29.004 79.128 30.289 77.9 31.364 C 75.376 33.387 72.84 34.942 70.285 36.251 C 65.212 38.9 60.361 40.56 56.258 41.771 C 48.029 44.15 42.736 44.648 42.693 44.347 C 42.625 44.008 47.777 42.927 55.749 40.179 C 59.716 38.784 64.42 36.989 69.259 34.333 C 71.673 33.043 74.154 31.438 76.383 29.625 C 77.433 28.691 78.379 27.596 78.944 26.379 C 79.534 25.175 79.607 23.841 78.993 22.937 C 78.416 21.997 77.102 21.523 75.745 21.425 C 74.369 21.327 72.932 21.579 71.55 21.941 C 68.78 22.753 66.213 24.08 63.892 25.519 C 59.231 28.42 55.485 31.795 52.42 34.671 C 49.38 37.548 46.991 40.136 45.432 41.74 C 44.044 43.062 43.282 43.781 42.693 44.347 Z" fill="rgb(236,79,83)"></path><path d="M 42.682 44.224 C 42.732 44.353 42.068 43.48 40.619 41.212 C 39.36 39.024 37.776 36.055 36.081 32.09 C 34.423 28.15 32.586 23.331 31.591 17.664 C 31.106 14.836 30.818 11.781 31.168 8.566 C 31.389 6.962 31.745 5.308 32.549 3.716 C 33.342 2.186 34.693 0.471 36.885 0.077 C 39.071 -0.322 41.049 0.889 42.185 2.229 C 43.389 3.593 44.113 5.173 44.617 6.728 C 45.477 9.851 45.913 12.789 46.109 15.66 C 46.545 21.37 46.158 26.49 45.661 30.738 C 44.605 39.245 42.983 44.31 42.689 44.236 C 42.351 44.162 43.383 38.999 43.997 30.578 C 44.279 26.374 44.482 21.345 43.941 15.85 C 43.708 13.121 43.211 10.207 42.418 7.441 C 41.976 6.107 41.344 4.804 40.447 3.809 C 39.569 2.794 38.377 2.198 37.303 2.407 C 36.21 2.567 35.258 3.593 34.637 4.798 C 34.005 6.021 33.673 7.447 33.464 8.861 C 33.121 11.732 33.329 14.615 33.741 17.319 C 34.57 22.753 36.197 27.529 37.634 31.475 C 39.078 35.403 40.521 38.624 41.374 40.69 C 42.044 42.491 42.406 43.468 42.689 44.236 Z" fill="rgb(236,79,83)"></path></g><g transform="translate(16.681 455.335)" opacity="0"><path d="M 31.358 62.347 C 39.683 63.479 49.234 78.24 54.798 79.222 C 59.295 80.017 76.994 69.445 86.139 72.61 C 93.908 75.306 98.546 86.028 103.185 89.095 C 105.213 79.77 106.298 72.221 105.566 69.127 C 103.07 58.608 10.291 36.139 3.713 44.103 C 1.34 46.967 0.247 58.714 0 72.963 C 0.344 73.096 0.714 73.22 1.138 73.317 C 4.727 74.121 23.034 61.207 31.358 62.347 Z" fill="rgb(0,161,87)"></path><path d="M 83.908 86.351 C 74.754 83.178 57.056 93.758 52.558 92.963 C 46.994 91.973 37.443 77.22 29.119 76.089 C 21.447 75.046 5.282 85.936 0 87.005 C 0.159 96.728 0.617 106.637 1.252 115.061 C 7.751 112.144 19.083 105.32 25 106.125 C 32.725 107.177 41.606 120.877 46.764 121.797 C 50.944 122.539 67.373 112.719 75.874 115.662 C 83.026 118.137 87.312 127.949 91.58 130.901 C 94.366 122.336 97.418 111.959 99.975 102.103 C 95.645 98.328 91.13 88.87 83.899 86.36 Z" fill="rgb(0,161,87)"></path><path d="M 52.622 93.299 C 57.12 94.094 74.818 83.522 83.972 86.687 C 91.203 89.188 95.718 98.655 100.048 102.43 C 101.247 97.807 102.341 93.29 103.24 89.135 C 98.602 86.068 93.972 75.346 86.194 72.65 C 77.041 69.477 59.342 80.057 54.853 79.262 C 49.289 78.272 39.738 63.519 31.414 62.388 C 23.089 61.256 4.782 74.162 1.193 73.357 C 0.77 73.26 0.399 73.145 0.055 73.004 C -0.024 77.591 -0.015 82.444 0.064 87.332 C 5.346 86.263 21.511 75.373 29.183 76.416 C 37.507 77.547 47.058 92.309 52.622 93.29 Z" fill="rgb(0,64,64)"></path><path d="M 44.983 135.069 C 39.815 134.15 30.944 120.449 23.219 119.397 C 18.184 118.708 9.206 123.56 2.646 126.822 C 3.245 131.737 3.924 135.308 4.621 136.784 C 8.598 145.208 79.798 157.194 84.772 149.566 C 85.539 148.381 86.641 145.889 87.929 142.485 C 84.225 138.517 80.204 131.047 74.102 128.935 C 65.601 125.991 49.163 135.812 44.992 135.069 Z" fill="rgb(0,161,87)"></path><path d="M 46.835 121.81 C 41.667 120.89 32.796 107.189 25.071 106.137 C 19.154 105.333 7.822 112.157 1.323 115.074 C 1.649 119.379 2.019 123.295 2.425 126.6 C 8.986 123.339 17.963 118.495 22.999 119.175 C 30.724 120.227 39.604 133.928 44.763 134.848 C 48.943 135.59 65.371 125.77 73.872 128.713 C 79.975 130.826 83.996 138.286 87.7 142.264 C 88.881 139.143 90.231 135.263 91.65 130.914 C 87.382 127.962 83.088 118.15 75.945 115.675 C 67.444 112.732 51.006 122.552 46.835 121.81 Z" fill="rgb(0,64,64)"></path><path d="M 55.345 50.085 C 55.433 50.253 54.56 49.448 52.488 47.026 C 50.697 44.693 48.475 41.572 45.962 37.285 C 43.502 33.025 40.724 27.792 38.792 21.436 C 37.84 18.263 37.082 14.798 37.038 11.041 C 37.073 9.159 37.249 7.187 37.964 5.207 C 38.669 3.307 40.018 1.053 42.62 0.257 C 45.203 -0.538 47.743 0.637 49.269 2.052 C 50.883 3.493 51.932 5.225 52.734 6.966 C 54.163 10.449 55.045 13.746 55.653 17.008 C 56.923 23.487 57.153 29.383 57.135 34.306 C 57.038 44.162 55.803 50.155 55.362 50.102 C 54.877 50.058 55.257 44.03 54.745 34.368 C 54.463 29.551 53.978 23.805 52.602 17.653 C 51.958 14.595 50.988 11.351 49.719 8.354 C 49.048 6.922 48.166 5.57 47.055 4.597 C 45.962 3.607 44.639 3.165 43.616 3.501 C 42.549 3.775 41.65 4.969 41.129 6.383 C 40.6 7.806 40.415 9.441 40.362 11.059 C 40.362 14.321 40.971 17.556 41.8 20.57 C 43.457 26.616 45.935 31.831 48.078 36.136 C 50.221 40.414 52.285 43.924 53.484 46.142 C 54.463 48.228 55.274 49.917 55.362 50.094 Z" fill="rgb(236,79,83)"></path><path d="M 55.497 50.094 C 55.673 50.174 54.483 50.059 51.37 49.387 C 48.539 48.618 44.879 47.469 40.294 45.577 C 35.77 43.677 30.399 41.184 25.02 37.295 C 22.348 35.341 19.65 33.043 17.348 30.073 C 16.237 28.553 15.196 26.882 14.57 24.867 C 13.988 22.922 13.706 20.314 15.293 18.105 C 16.872 15.904 19.605 15.303 21.669 15.506 C 23.821 15.674 25.708 16.425 27.392 17.318 C 30.629 19.236 33.318 21.322 35.779 23.55 C 40.69 27.943 44.438 32.504 47.392 36.429 C 53.257 44.34 55.885 49.864 55.505 50.085 C 55.091 50.342 51.758 45.312 45.523 37.922 C 42.392 34.263 38.539 29.976 33.733 25.901 C 31.378 23.859 28.644 21.861 25.831 20.244 C 24.429 19.51 22.912 18.971 21.449 18.865 C 19.976 18.732 18.662 19.183 18.045 20.076 C 17.366 20.942 17.366 22.436 17.806 23.877 C 18.247 25.335 19.085 26.75 20.02 28.067 C 21.986 30.674 24.429 32.875 26.898 34.767 C 31.863 38.577 36.987 41.228 41.29 43.367 C 45.576 45.471 49.333 47.018 51.634 48.07 C 53.671 49.14 55.338 49.997 55.514 50.077 Z" fill="rgb(236,79,83)"></path><path d="M 55.137 50.036 C 55.014 50.186 55.402 49.055 56.777 46.173 C 58.179 43.592 60.128 40.286 63.021 36.246 C 65.913 32.269 69.564 27.602 74.582 23.261 C 77.086 21.105 79.943 19.01 83.356 17.445 C 85.085 16.712 86.954 16.075 89.053 15.934 C 91.072 15.81 93.674 16.137 95.455 18.197 C 97.228 20.247 97.183 23.049 96.504 25.012 C 95.843 27.071 94.688 28.742 93.427 30.174 C 90.825 32.888 88.171 35.035 85.446 36.918 C 80.049 40.701 74.758 43.309 70.261 45.28 C 61.231 49.178 55.26 50.469 55.137 50.045 C 54.987 49.576 60.64 47.49 69.238 43.106 C 73.515 40.896 78.559 38.129 83.621 34.373 C 86.152 32.543 88.718 30.342 90.931 27.973 C 91.963 26.78 92.845 25.418 93.277 24.013 C 93.744 22.607 93.612 21.22 92.88 20.415 C 92.192 19.549 90.746 19.213 89.247 19.301 C 87.73 19.39 86.16 19.885 84.67 20.495 C 81.689 21.812 78.991 23.686 76.575 25.657 C 71.733 29.626 67.977 34.001 64.908 37.714 C 61.874 41.409 59.511 44.723 57.968 46.721 C 56.46 48.462 55.252 49.894 55.128 50.045 Z" fill="rgb(236,79,83)"></path><path d="M 55.137 50.266 C 54.961 50.337 55.851 49.55 58.462 47.721 C 60.957 46.174 64.282 44.264 68.788 42.187 C 73.268 40.163 78.735 37.918 85.243 36.627 C 88.488 35.991 92.007 35.584 95.746 35.92 C 97.616 36.141 99.547 36.512 101.443 37.432 C 103.259 38.324 105.358 39.898 105.887 42.567 C 106.416 45.228 104.997 47.641 103.436 49.011 C 101.848 50.47 100.014 51.353 98.215 51.972 C 94.608 53.042 91.249 53.59 87.95 53.873 C 81.398 54.483 75.516 54.129 70.631 53.616 C 60.851 52.529 55.031 50.691 55.128 50.257 C 55.225 49.771 61.169 50.761 70.807 51.221 C 75.613 51.424 81.372 51.513 87.615 50.761 C 90.719 50.425 94.035 49.78 97.131 48.825 C 98.621 48.295 100.049 47.553 101.125 46.554 C 102.219 45.564 102.792 44.291 102.554 43.23 C 102.386 42.134 101.293 41.126 99.944 40.463 C 98.577 39.792 96.972 39.438 95.376 39.235 C 92.13 38.899 88.859 39.191 85.79 39.712 C 79.626 40.764 74.194 42.709 69.705 44.406 C 65.243 46.112 61.557 47.818 59.229 48.79 C 57.059 49.559 55.305 50.196 55.119 50.266 Z" fill="rgb(236,79,83)"></path><path d="M 54.975 49.932 C 54.975 50.127 54.596 48.995 53.952 45.866 C 53.511 42.958 53.07 39.148 52.938 34.172 C 52.841 29.248 52.938 23.326 54.314 16.82 C 55.01 13.576 56.016 10.182 57.797 6.867 C 58.732 5.232 59.834 3.597 61.422 2.209 C 62.956 0.883 65.222 -0.425 67.885 0.132 C 70.54 0.689 72.189 2.951 72.833 4.923 C 73.547 6.964 73.635 8.998 73.494 10.898 C 73.062 14.637 72.242 17.952 71.201 21.107 C 69.182 27.392 66.545 32.669 64.155 36.965 C 59.314 45.548 55.337 50.189 54.975 49.924 C 54.57 49.641 57.815 44.558 62.03 35.851 C 64.102 31.502 66.457 26.234 68.221 20.179 C 69.129 17.192 69.852 13.877 70.187 10.65 C 70.284 9.068 70.169 7.459 69.667 6.081 C 69.191 4.684 68.247 3.659 67.18 3.455 C 66.113 3.181 64.755 3.791 63.617 4.772 C 62.462 5.762 61.51 7.106 60.69 8.494 C 59.111 11.349 58.088 14.478 57.356 17.51 C 55.892 23.6 55.54 29.372 55.328 34.181 C 55.143 38.963 55.249 43.029 55.231 45.566 C 55.081 47.873 54.975 49.738 54.975 49.932 Z" fill="rgb(236,79,83)"></path></g><g transform="translate(30.5 432.139)" opacity="0"><path d="M 71.14 54.098 C 41.312 69.754 15.003 84.586 0.847 92.688 C 0.399 98.663 0.098 104.404 0 109.456 C 10.999 103.088 45.426 83.351 84.62 62.986 C 82.974 60.534 77.92 57.362 71.14 54.092 Z" fill="rgb(0,64,64)"></path><path d="M 64.949 51.332 C 38.604 65.242 15.39 78.274 1.462 86.215 C 1.265 88.416 1.081 90.604 0.921 92.762 C 15.077 84.66 41.386 69.828 71.213 54.172 C 69.254 53.225 67.154 52.273 64.949 51.326 Z" fill="rgb(0,189,115)"></path><path d="M 9.679 39.686 C 8.321 41.77 6.872 47.505 5.527 55.115 C 14.452 50.135 23.41 45.215 32.401 40.356 C 20.942 37.547 11.638 36.68 9.679 39.686 Z" fill="rgb(0,64,64)"></path><path d="M 32.272 40.262 C 23.282 45.123 14.324 50.042 5.398 55.02 C 4.569 59.68 3.783 65.046 3.071 70.713 C 15.15 63.896 31.277 54.934 49.302 45.308 C 43.51 43.329 37.658 41.583 32.278 40.262 Z" fill="rgb(0,189,115)"></path><path d="M 49.424 45.179 C 31.406 54.805 15.279 63.767 3.193 70.584 C 2.567 75.594 2.002 80.837 1.535 86.031 C 15.464 78.083 38.677 65.058 65.023 51.148 C 60.172 49.07 54.829 47.029 49.424 45.185 Z" fill="rgb(0,64,64)"></path><path d="M 85.186 64.118 C 85.107 63.767 84.916 63.398 84.658 63.005 C 45.465 83.363 11.037 103.101 0.039 109.475 C -0.115 117.128 0.18 123.207 1.101 126.157 C 35.056 108.522 65.436 91.348 80.114 82.921 C 83.645 73.946 85.813 66.779 85.18 64.118 Z M 70.896 104.09 C 57.404 111.749 37.377 122.93 14.802 134.904 C 17.246 135.894 19.869 136.859 22.552 137.763 C 39.49 128.696 54.665 120.269 66.259 113.729 C 67.813 110.587 69.373 107.348 70.896 104.09 Z" fill="rgb(0,189,115)"></path><path d="M 22.673 137.818 C 34.409 141.77 47.183 144.456 50.168 142.127 C 52.421 140.363 59.293 128.124 66.38 113.784 C 51.899 121.954 37.329 129.966 22.673 137.818 Z M 80.241 82.982 C 65.557 91.409 35.177 108.577 1.228 126.219 C 1.437 126.877 1.67 127.393 1.941 127.719 C 3.642 129.772 8.684 132.439 14.923 134.966 C 37.498 122.992 57.525 111.811 71.017 104.152 C 74.45 96.825 77.699 89.436 80.241 82.982 Z" fill="rgb(0,64,64)"></path><path d="M 45.961 44.286 C 46.01 44.415 45.359 43.536 43.934 41.244 C 42.706 39.043 41.158 36.056 39.506 32.066 C 37.897 28.102 36.122 23.264 35.201 17.584 C 34.747 14.751 34.501 11.69 34.894 8.481 C 35.134 6.883 35.514 5.236 36.337 3.65 C 37.148 2.125 38.518 0.429 40.716 0.066 C 42.902 -0.303 44.868 0.933 45.985 2.285 C 47.177 3.668 47.877 5.254 48.362 6.815 C 49.185 9.944 49.578 12.894 49.738 15.765 C 50.1 21.475 49.652 26.59 49.099 30.837 C 47.938 39.332 46.249 44.378 45.961 44.299 C 45.623 44.219 46.722 39.074 47.441 30.659 C 47.772 26.461 48.043 21.432 47.57 15.931 C 47.367 13.196 46.906 10.276 46.151 7.504 C 45.727 6.164 45.107 4.854 44.223 3.846 C 43.357 2.82 42.172 2.211 41.097 2.408 C 40.004 2.556 39.04 3.57 38.401 4.768 C 37.756 5.985 37.4 7.405 37.179 8.819 C 36.798 11.684 36.97 14.566 37.345 17.277 C 38.106 22.717 39.672 27.518 41.06 31.482 C 42.454 35.429 43.854 38.662 44.683 40.74 C 45.328 42.547 45.678 43.53 45.955 44.299 Z" fill="rgb(236,79,83)"></path><path d="M 46.155 44.414 C 46.272 44.487 45.221 44.18 42.704 43.215 C 40.394 42.201 37.361 40.762 33.633 38.58 C 29.961 36.398 25.625 33.62 21.455 29.649 C 19.379 27.664 17.34 25.377 15.713 22.586 C 14.939 21.166 14.245 19.624 13.944 17.866 C 13.668 16.163 13.736 13.981 15.271 12.358 C 16.794 10.741 19.103 10.532 20.81 10.932 C 22.591 11.313 24.108 12.155 25.441 13.102 C 27.989 15.099 30.077 17.208 31.944 19.396 C 35.684 23.723 38.417 28.075 40.536 31.788 C 44.742 39.256 46.444 44.297 46.161 44.407 C 45.848 44.549 43.612 39.785 39.105 32.649 C 36.839 29.102 34.008 24.934 30.311 20.834 C 28.499 18.781 26.368 16.728 24.09 14.983 C 22.941 14.171 21.658 13.501 20.343 13.237 C 19.035 12.942 17.721 13.175 16.984 13.981 C 16.198 14.761 16.045 16.151 16.266 17.491 C 16.487 18.849 17.064 20.195 17.733 21.455 C 19.158 23.969 21.037 26.164 22.978 28.094 C 26.872 31.966 31.017 34.843 34.517 37.167 C 38.012 39.465 41.082 41.199 42.998 42.348 C 44.601 43.399 45.479 43.971 46.161 44.42 Z" fill="rgb(236,79,83)"></path><path d="M 45.763 44.33 C 45.665 44.422 46.205 43.476 47.722 41.245 C 49.239 39.228 51.339 36.604 54.318 33.481 C 57.29 30.408 60.987 26.824 65.808 23.677 C 68.215 22.116 70.905 20.653 74 19.712 C 75.56 19.288 77.218 18.962 78.999 19.079 C 80.719 19.202 82.825 19.774 84.047 21.636 C 85.27 23.493 84.938 25.785 84.152 27.359 C 83.372 29.006 82.205 30.291 80.971 31.367 C 78.441 33.389 75.91 34.938 73.356 36.247 C 68.283 38.89 63.431 40.55 59.329 41.761 C 51.1 44.134 45.806 44.631 45.763 44.33 C 45.696 43.992 50.848 42.91 58.826 40.169 C 62.799 38.774 67.497 36.985 72.336 34.323 C 74.75 33.032 77.237 31.428 79.46 29.615 C 80.51 28.68 81.456 27.586 82.021 26.369 C 82.61 25.164 82.684 23.831 82.07 22.927 C 81.493 21.987 80.178 21.513 78.827 21.415 C 77.452 21.317 76.015 21.569 74.633 21.931 C 71.863 22.743 69.296 24.064 66.975 25.509 C 62.314 28.41 58.561 31.785 55.497 34.655 C 52.457 37.526 50.068 40.12 48.508 41.718 C 47.114 43.039 46.359 43.759 45.769 44.318 Z" fill="rgb(236,79,83)"></path><path d="M 45.764 44.377 C 45.635 44.408 46.568 43.854 48.988 42.662 C 51.303 41.66 54.423 40.418 58.556 39.177 C 62.658 37.972 67.645 36.693 73.387 36.343 C 76.249 36.177 79.313 36.238 82.463 36.951 C 84.029 37.351 85.632 37.892 87.125 38.875 C 88.556 39.834 90.103 41.371 90.251 43.602 C 90.398 45.821 88.973 47.653 87.518 48.63 C 86.025 49.675 84.38 50.216 82.777 50.542 C 79.583 51.046 76.617 51.144 73.743 51.015 C 68.025 50.806 62.99 49.841 58.826 48.864 C 50.498 46.854 45.653 44.666 45.764 44.383 C 45.874 44.057 50.885 45.668 59.17 47.229 C 63.309 47.985 68.283 48.753 73.798 48.839 C 76.537 48.913 79.485 48.747 82.316 48.274 C 83.692 47.985 85.055 47.499 86.148 46.725 C 87.254 45.969 87.978 44.844 87.892 43.756 C 87.855 42.65 86.947 41.586 85.817 40.836 C 84.668 40.074 83.293 39.576 81.911 39.207 C 79.104 38.537 76.218 38.421 73.485 38.525 C 68.001 38.74 63.076 39.816 58.992 40.793 C 54.932 41.783 51.573 42.852 49.424 43.473 C 47.563 43.934 46.55 44.186 45.757 44.377 Z" fill="rgb(236,79,83)"></path><path d="M 45.747 44.288 C 45.728 44.424 45.581 43.342 45.446 40.643 C 45.434 38.117 45.526 34.755 46.011 30.47 C 46.521 26.223 47.307 21.133 49.241 15.712 C 50.218 13.013 51.477 10.216 53.374 7.598 C 54.357 6.313 55.487 5.053 56.973 4.07 C 58.416 3.129 60.443 2.312 62.543 3.055 C 64.637 3.793 65.761 5.821 66.087 7.549 C 66.461 9.331 66.308 11.059 65.976 12.663 C 65.184 15.804 64.103 18.57 62.856 21.158 C 60.412 26.333 57.544 30.593 55.014 34.035 C 49.892 40.908 45.98 44.503 45.759 44.294 C 45.501 44.061 48.953 40.09 53.651 33.076 C 55.972 29.567 58.637 25.295 60.885 20.248 C 62.027 17.759 63.04 14.98 63.716 12.19 C 63.992 10.807 64.085 9.368 63.796 8.053 C 63.538 6.737 62.789 5.631 61.757 5.281 C 60.731 4.875 59.393 5.299 58.256 6.043 C 57.102 6.799 56.107 7.868 55.229 8.993 C 53.509 11.317 52.269 13.923 51.286 16.48 C 49.321 21.613 48.375 26.567 47.669 30.71 C 46.981 34.841 46.643 38.35 46.367 40.569 C 46.06 42.463 45.888 43.495 45.759 44.301 Z" fill="rgb(236,79,83)"></path></g><path d="M 110.555 515.104 C 110.555 515.104 128.082 525.105 141.464 553.773 C 141.464 553.773 92.426 579.633 77.951 563.037 C 70.035 553.964 104.334 529.629 104.334 529.629 C 104.334 529.629 89.067 529.629 89.822 526.611 C 90.577 523.593 110.555 515.104 110.555 515.104 Z" fill="rgb(205,7,12)"></path></g></svg>